<?xml version="1.0" standalone="no"?>
<!DOCTYPE svg PUBLIC "-//W3C//DTD SVG 20010904//EN"
 "http://www.w3.org/TR/2001/REC-SVG-20010904/DTD/svg10.dtd">
<svg version="1.0" xmlns="http://www.w3.org/2000/svg"
 width="640.000000pt" height="640.000000pt" viewBox="0 0 640.000000 640.000000"
 preserveAspectRatio="xMidYMid meet">
<metadata>
Created by potrace 1.11, written by Peter Selinger 2001-2013
</metadata>
<g transform="translate(0.000000,640.000000) scale(0.100000,-0.100000)"
fill="#000000" stroke="none">
<path d="M2343 6121 c-17 -15 -63 -48 -101 -72 -68 -43 -148 -102 -301 -224
-42 -34 -104 -80 -138 -104 -35 -24 -63 -47 -63 -51 0 -4 -21 -19 -47 -33 -27
-14 -71 -43 -100 -64 -28 -21 -84 -61 -125 -90 -72 -51 -167 -131 -118 -99 61
40 135 91 140 97 3 3 15 11 27 17 12 7 55 37 95 67 40 30 78 55 84 55 6 0 31
19 55 41 24 23 58 51 76 63 42 28 257 191 314 238 25 21 73 55 106 75 33 21
77 51 96 66 l36 28 46 -33 c25 -18 76 -58 114 -88 38 -30 102 -75 142 -100 40
-25 79 -52 88 -60 53 -50 80 -72 92 -74 16 -2 92 -55 157 -108 24 -20 67 -49
96 -64 28 -15 53 -30 56 -33 16 -20 141 -112 175 -129 22 -11 49 -29 59 -41
11 -12 24 -21 30 -21 6 0 39 -22 73 -48 34 -26 87 -62 117 -81 51 -30 56 -37
56 -68 l0 -35 -51 44 c-48 41 -100 81 -144 113 -11 8 -45 33 -75 55 -30 22
-60 38 -68 35 -7 -2 -11 -1 -8 4 5 8 -229 169 -384 264 -41 25 -109 74 -151
109 -94 78 -236 183 -307 225 -29 18 -65 44 -80 58 -28 26 -47 31 -57 15 -3
-5 -32 -26 -63 -47 -31 -21 -79 -55 -107 -76 -113 -87 -235 -177 -272 -201
-21 -14 -69 -50 -108 -81 -38 -31 -122 -95 -185 -142 -63 -47 -127 -97 -142
-111 -15 -14 -43 -35 -61 -46 -52 -32 -151 -100 -183 -125 -38 -30 -136 -91
-146 -91 -17 0 -7 30 17 48 14 11 25 25 25 32 0 12 -41 -16 -88 -60 l-27 -25
28 -3 c15 -2 27 -8 27 -14 0 -7 5 -6 14 1 12 10 15 7 18 -16 2 -22 9 -29 33
-33 24 -4 31 -11 33 -33 l3 -27 -175 0 c-97 0 -176 -4 -176 -9 0 -10 497 -8
507 2 3 4 -4 7 -16 7 -27 0 -30 8 -36 95 -7 95 -7 96 -19 92 -7 -2 -10 -36 -8
-95 2 -71 0 -92 -11 -92 -9 0 -13 17 -12 63 0 34 -2 74 -6 90 -7 23 -2 32 29
62 20 19 40 35 45 35 7 0 72 44 157 107 25 18 61 44 80 57 19 13 44 33 54 45
11 11 25 21 33 21 7 0 13 4 13 8 0 11 56 43 63 35 4 -3 12 6 18 20 6 14 26 33
43 41 50 25 87 52 79 59 -3 4 1 7 9 7 9 0 35 18 59 39 23 22 46 38 50 35 4 -2
9 -1 11 3 4 10 74 63 82 63 3 0 6 -54 6 -120 0 -112 -1 -120 -19 -120 -11 0
-22 8 -24 18 -4 16 -5 16 -6 0 0 -10 -9 -18 -18 -18 -22 0 -49 -17 -41 -25 3
-3 34 -1 68 5 33 6 186 13 338 14 430 5 462 6 427 17 -16 4 -39 6 -51 3 -12
-3 -32 -1 -43 6 -14 7 -21 7 -21 0 0 -5 -13 -10 -30 -10 -22 0 -30 5 -31 18 0
10 -3 12 -6 5 -8 -22 -21 -14 -26 15 -4 25 -4 25 -6 -5 -1 -26 -5 -33 -22 -33
-11 0 -29 4 -39 10 -13 7 -19 6 -24 -5 -8 -21 -39 -19 -64 4 -22 19 -30 37
-12 26 6 -3 10 1 10 11 0 14 -2 15 -17 3 -15 -13 -16 -11 -10 10 4 18 3 21 -6
12 -9 -9 -8 -18 5 -41 l16 -29 -91 0 c-95 0 -120 9 -110 36 4 11 2 14 -6 9 -6
-4 -10 -15 -9 -24 2 -13 -7 -17 -46 -19 -28 -1 -56 3 -63 9 -16 13 -19 213 -3
203 7 -4 9 2 5 17 -5 20 1 31 34 57 22 18 60 45 83 61 24 15 54 37 67 49 13
11 28 21 32 21 5 0 24 14 43 30 34 30 59 32 70 4 3 -8 11 -14 17 -14 6 0 27
-13 46 -30 18 -16 38 -30 43 -30 12 0 249 -172 291 -211 18 -16 42 -35 53 -41
12 -6 39 -26 62 -45 23 -18 44 -33 48 -33 3 0 24 -11 46 -25 22 -14 40 -22 40
-18 0 5 4 3 8 -3 4 -6 39 -32 77 -58 39 -27 80 -57 92 -68 12 -11 26 -17 32
-13 6 3 11 2 11 -3 0 -5 11 -15 25 -22 13 -7 22 -16 20 -20 -3 -4 10 -14 28
-21 17 -7 37 -18 43 -24 6 -5 27 -21 47 -35 20 -14 37 -28 37 -32 0 -5 6 -8
13 -8 7 0 28 -16 47 -35 21 -22 40 -33 49 -30 9 3 12 3 8 -1 -4 -4 -1 -14 7
-23 9 -10 16 -49 19 -109 2 -51 8 -96 12 -100 4 -4 4 33 1 81 -3 56 -2 86 4
82 6 -3 10 -40 10 -81 0 -56 3 -74 14 -74 8 0 12 9 10 23 -11 75 -10 117 3
117 10 0 13 -18 13 -70 0 -58 3 -70 16 -70 12 0 14 5 9 18 -14 32 -18 122 -6
122 6 0 11 -18 11 -45 0 -45 17 -95 32 -95 10 0 11 14 1 24 -4 4 -6 25 -4 46
1 24 -2 40 -8 40 -6 0 -11 5 -11 10 0 6 9 10 20 10 17 0 20 -7 21 -50 2 -69 3
-73 14 -77 6 -2 10 25 10 69 -1 79 3 74 -72 94 -24 6 -13 24 15 25 25 2 25 2
3 6 -13 3 -25 12 -28 21 -4 16 -105 88 -245 175 -33 20 -74 48 -90 62 -16 14
-34 25 -40 25 -5 0 -45 26 -87 58 -42 32 -98 71 -126 87 -27 16 -81 54 -120
85 -98 77 -135 101 -146 94 -5 -3 -8 -1 -7 5 4 12 -107 103 -202 166 -41 27
-93 66 -116 86 -40 36 -84 65 -84 55 0 -3 -11 6 -25 19 -30 31 -34 31 -72 -4z
m-1141 -1019 c2 -52 -1 -81 -7 -79 -5 2 -11 44 -13 93 -2 56 1 85 7 79 5 -6
11 -47 13 -93z m-42 48 c0 -11 -4 -20 -9 -20 -11 0 -22 26 -14 34 12 12 23 5
23 -14z m-37 -30 c3 -11 1 -20 -4 -20 -5 0 -9 9 -9 20 0 11 2 20 4 20 2 0 6
-9 9 -20z"/>
<path d="M2073 5710 c0 -36 2 -50 4 -32 2 17 2 47 0 65 -2 17 -4 3 -4 -33z"/>
<path d="M2172 5725 c0 -16 2 -22 5 -12 2 9 2 23 0 30 -3 6 -5 -1 -5 -18z"/>
<path d="M1994 5716 c-3 -8 -4 -27 -2 -43 3 -23 5 -20 9 15 5 43 2 53 -7 28z"/>
<path d="M2131 5654 c0 -11 3 -14 6 -6 3 7 2 16 -1 19 -3 4 -6 -2 -5 -13z"/>
<path d="M1991 5498 c2 -30 2 -30 6 -6 3 18 12 28 26 31 18 4 17 5 -5 6 -25 1
-28 -2 -27 -31z"/>
<path d="M2133 5523 c15 -2 37 -2 50 0 12 2 0 4 -28 4 -27 0 -38 -2 -22 -4z"/>
<path d="M2296 5514 c-3 -9 -6 -39 -5 -67 1 -41 3 -47 9 -27 4 14 8 40 9 58 1
26 5 32 24 33 21 0 21 1 2 9 -29 12 -32 12 -39 -6z"/>
<path d="M2630 5520 c0 -5 7 -7 15 -4 8 4 15 8 15 10 0 2 -7 4 -15 4 -8 0 -15
-4 -15 -10z"/>
<path d="M2678 5523 c7 -3 16 -2 19 1 4 3 -2 6 -13 5 -11 0 -14 -3 -6 -6z"/>
<path d="M2728 5523 c12 -2 32 -2 45 0 12 2 2 4 -23 4 -25 0 -35 -2 -22 -4z"/>
<path d="M2583 5480 c0 -25 2 -35 4 -22 2 12 2 32 0 45 -2 12 -4 2 -4 -23z"/>
<path d="M2803 5450 c0 -41 2 -58 4 -37 2 20 2 54 0 75 -2 20 -4 3 -4 -38z"/>
<path d="M2448 5493 c-14 -4 -16 -13 -12 -56 3 -29 7 -53 8 -55 2 -1 17 1 34
4 31 6 32 8 32 60 0 57 -6 62 -62 47z"/>
<path d="M2612 5445 c3 -48 4 -50 33 -50 29 0 30 1 30 50 0 50 0 50 -33 50
l-33 1 3 -51z"/>
<path d="M2733 5492 c-35 -3 -36 -6 -27 -64 6 -32 10 -37 40 -40 l34 -4 0 52
c0 29 -3 54 -7 56 -5 2 -23 2 -40 0z"/>
<path d="M2039 5486 c-3 -3 -3 -23 -1 -44 4 -37 6 -40 38 -44 l34 -4 0 48 c0
48 0 48 -33 48 -19 0 -36 -2 -38 -4z"/>
<path d="M2142 5445 c0 -27 4 -46 11 -46 60 -7 57 -9 57 42 l0 49 -34 0 c-34
0 -34 0 -34 -45z"/>
<path d="M2326 5473 c-2 -10 -5 -35 -4 -55 0 -37 1 -38 40 -38 l39 0 -3 53
c-3 50 -4 52 -35 55 -23 2 -33 -1 -37 -15z"/>
<path d="M2531 5384 c0 -11 3 -14 6 -6 3 7 2 16 -1 19 -3 4 -6 -2 -5 -13z"/>
<path d="M2068 5362 c-27 -3 -28 -6 -28 -58 l0 -54 35 0 35 0 0 48 c0 58 -7
68 -42 64z"/>
<path d="M2140 5336 c0 -18 3 -48 6 -65 6 -28 10 -31 45 -31 l39 0 0 49 c0 72
-6 81 -51 81 -38 0 -39 -1 -39 -34z"/>
<path d="M2617 5363 c-4 -3 -7 -33 -7 -65 l0 -58 41 0 42 0 -6 55 c-3 30 -8
59 -12 65 -7 11 -48 14 -58 3z"/>
<path d="M1543 5234 c4 -71 7 -153 7 -181 0 -44 3 -53 18 -53 15 0 17 10 15
82 -1 46 -2 113 -2 150 -1 58 -3 67 -17 61 -14 -5 -16 -1 -12 26 3 17 0 35 -5
38 -7 4 -8 -38 -4 -123z m18 3 c-10 -9 -11 -8 -5 6 3 10 9 15 12 12 3 -3 0
-11 -7 -18z m6 -149 c-3 -7 -5 -2 -5 12 0 14 2 19 5 13 2 -7 2 -19 0 -25z"/>
<path d="M1902 5340 c0 -14 2 -19 5 -12 2 6 2 18 0 25 -3 6 -5 1 -5 -13z"/>
<path d="M2353 5353 c-21 -4 -23 -10 -23 -62 0 -58 0 -59 32 -65 41 -8 50 6
43 68 -7 52 -12 67 -23 65 -4 -1 -17 -4 -29 -6z"/>
<path d="M2448 5353 c-14 -3 -18 -15 -18 -53 0 -63 7 -80 35 -80 47 0 52 7 47
68 -6 68 -15 78 -64 65z"/>
<path d="M2582 5330 c0 -19 2 -27 5 -17 2 9 2 25 0 35 -3 9 -5 1 -5 -18z"/>
<path d="M2710 5300 l0 -60 40 0 39 0 -2 60 -1 60 -38 0 -38 0 0 -60z"/>
<path d="M1202 5294 c-34 -25 -62 -48 -62 -50 0 -8 33 10 54 30 12 12 35 31
51 43 17 12 27 22 24 22 -3 1 -33 -20 -67 -45z"/>
<path d="M1970 5283 c0 -24 -3 -33 -9 -25 -10 17 -1 -99 10 -118 5 -9 9 24 9
83 0 53 -2 97 -5 97 -3 0 -5 -17 -5 -37z"/>
<path d="M2302 5280 c0 -19 2 -27 5 -17 2 9 2 25 0 35 -3 9 -5 1 -5 -18z"/>
<path d="M2542 5290 c0 -14 2 -19 5 -12 2 6 2 18 0 25 -3 6 -5 1 -5 -13z"/>
<path d="M1908 5278 c8 -10 9 -17 2 -20 -7 -2 -11 -48 -11 -126 0 -67 -4 -122
-9 -122 -4 0 -10 42 -12 94 -3 87 -10 118 -24 104 -3 -3 -6 -51 -8 -107 l-2
-101 48 0 c48 0 57 7 37 27 -7 7 -10 36 -7 77 2 39 0 61 -5 53 -5 -7 -6 -3 -2
13 17 69 17 96 -1 110 -17 14 -18 13 -6 -2z m-38 -158 c0 -5 -2 -10 -4 -10 -3
0 -8 5 -11 10 -3 6 -1 10 4 10 6 0 11 -4 11 -10z"/>
<path d="M2581 5274 c0 -11 3 -14 6 -6 3 7 2 16 -1 19 -3 4 -6 -2 -5 -13z"/>
<path d="M2813 5178 l2 -107 -45 -4 -45 -3 51 -2 51 -2 -4 103 c-3 56 -6 107
-9 112 -2 6 -3 -38 -1 -97z"/>
<path d="M1628 5198 c-4 -88 8 -113 15 -31 8 82 7 103 -3 103 -5 0 -10 -33
-12 -72z"/>
<path d="M2301 5168 c-1 -42 2 -83 5 -92 7 -17 34 -22 34 -6 0 6 -4 10 -10 10
-6 0 -10 28 -11 63 -1 95 -17 118 -18 25z"/>
<path d="M2543 5162 c0 -46 -4 -87 -9 -91 -5 -4 -20 -5 -34 -1 l-25 6 23 8
c19 6 22 14 22 62 0 59 -11 71 -54 60 -21 -5 -23 -10 -18 -58 2 -29 9 -59 14
-65 8 -10 -3 -13 -48 -14 -47 -2 -38 -4 41 -10 54 -4 101 -6 103 -4 3 3 0 46
-5 97 l-10 93 0 -83z"/>
<path d="M1302 5147 c-1 -45 2 -76 7 -73 5 4 7 -3 4 -14 -3 -11 0 -20 6 -20 7
0 10 30 9 93 -1 77 -2 84 -8 42 l-6 -50 -5 50 c-5 43 -6 39 -7 -28z"/>
<path d="M1417 5138 c6 -86 15 -130 28 -135 14 -4 7 177 -6 194 -22 26 -27 12
-22 -59z m20 10 c-3 -8 -6 -5 -6 6 -1 11 2 17 5 13 3 -3 4 -12 1 -19z"/>
<path d="M1480 5195 c-7 -8 -8 -15 -3 -15 5 0 8 -15 6 -32 -12 -147 -12 -148
16 -148 24 1 25 2 8 14 -10 8 -14 17 -9 20 12 7 15 176 4 176 -5 0 -15 -7 -22
-15z"/>
<path d="M2040 5153 l0 -53 40 0 c39 0 40 1 39 33 -1 54 -13 72 -48 72 -31 0
-31 0 -31 -52z"/>
<path d="M2624 5196 c-3 -7 -4 -35 -2 -62 3 -49 3 -49 41 -52 36 -3 37 -2 37
31 0 19 -3 49 -6 66 -6 26 -11 31 -36 31 -16 0 -31 -6 -34 -14z"/>
<path d="M2718 5198 c-4 -12 -4 -26 1 -90 1 -14 10 -18 42 -18 38 0 41 2 35
23 -3 12 -6 39 -6 60 0 35 -1 37 -34 37 -19 0 -36 -6 -38 -12z"/>
<path d="M1380 5189 c0 -5 -4 -7 -10 -4 -12 7 -11 -96 1 -137 7 -24 5 -28 -14
-29 -17 -1 -15 -3 8 -8 33 -8 54 -3 35 9 -8 5 -10 31 -5 94 5 60 4 86 -4 86
-6 0 -11 -5 -11 -11z"/>
<path d="M1689 5185 c-2 -36 -2 -79 -1 -132 2 -50 4 -53 28 -53 18 0 23 4 17
13 -4 6 -11 32 -15 57 l-7 45 2 -47 c3 -67 -10 -60 -15 7 -2 41 0 54 10 50 13
-5 8 35 -9 65 -7 12 -9 11 -10 -5z"/>
<path d="M2160 5148 c5 -51 6 -53 38 -56 l32 -3 0 55 0 56 -38 0 -38 0 6 -52z"/>
<path d="M2350 5145 l0 -55 35 0 c34 0 35 1 35 39 0 57 -8 71 -41 71 -28 0
-29 -1 -29 -55z"/>
<path d="M1766 5147 c-3 -23 -4 -66 -3 -94 2 -51 3 -53 30 -53 16 0 26 4 22
10 -3 6 -14 10 -23 10 -12 0 -13 3 -4 12 18 18 16 144 -2 151 -11 5 -16 -5
-20 -36z m21 -64 c-3 -10 -5 -4 -5 12 0 17 2 24 5 18 2 -7 2 -21 0 -30z"/>
<path d="M2001 5133 c-1 -34 3 -64 7 -67 5 -3 7 21 5 52 -6 81 -11 87 -12 15z"/>
<path d="M2592 5121 c2 -32 8 -56 16 -59 7 -2 10 2 7 10 -2 7 -7 31 -10 52 -8
60 -17 58 -13 -3z"/>
<path d="M1947 5144 c-9 -9 -9 -77 0 -100 6 -16 7 -16 14 2 7 17 8 17 8 -3 1
-13 -4 -23 -10 -23 -5 0 -7 -4 -4 -10 3 -5 12 -10 19 -10 9 0 11 15 8 58 -3
31 -8 59 -12 62 -4 3 -9 11 -11 18 -3 7 -8 10 -12 6z"/>
<path d="M3806 5088 c9 -67 14 -88 22 -88 11 0 8 114 -3 122 -20 15 -25 7 -19
-34z"/>
<path d="M3900 5121 c8 -6 24 -11 35 -11 28 -1 113 -41 97 -47 -7 -3 -19 0
-27 7 -8 6 -19 9 -24 5 -6 -3 -27 2 -46 11 -20 9 -37 15 -38 13 -2 -2 1 -27 5
-55 9 -51 10 -52 44 -51 28 1 33 4 28 19 -6 20 3 58 15 58 4 0 6 -13 3 -30 -6
-40 3 -61 23 -54 12 5 13 10 4 20 -6 7 -8 18 -4 24 9 15 48 -8 41 -26 -3 -9 1
-14 14 -14 14 0 18 5 13 17 -5 13 -2 15 11 10 10 -4 22 -7 27 -7 6 0 7 -4 4
-10 -4 -6 7 -10 27 -10 31 1 32 1 14 15 -11 8 -23 15 -28 15 -4 0 -5 7 -2 15
4 9 0 15 -9 15 -9 0 -51 15 -94 34 -79 34 -163 58 -133 37z m50 -87 c0 -25
-15 -33 -23 -11 -6 18 4 48 14 41 5 -3 9 -16 9 -30z"/>
<path d="M2250 5101 c0 -25 6 -27 13 -6 4 8 2 17 -3 20 -6 4 -10 -3 -10 -14z"/>
<path d="M3847 5104 c-3 -4 -3 -14 1 -23 4 -9 7 -33 7 -53 0 -39 12 -52 34
-38 9 5 10 10 2 14 -6 4 -11 29 -11 57 0 34 -4 49 -13 49 -8 0 -17 -3 -20 -6z"/>
<path d="M1627 5093 c-12 -19 -4 -85 11 -90 18 -8 27 4 14 19 -6 7 -12 29 -14
48 -2 21 -6 30 -11 23z"/>
<path d="M2093 5063 c31 -2 83 -2 115 0 31 2 5 3 -58 3 -63 0 -89 -1 -57 -3z"/>
<path d="M4203 5010 c14 -11 36 -20 48 -20 20 0 18 3 -14 20 -20 11 -42 20
-48 20 -7 0 0 -9 14 -20z"/>
<path d="M478 5013 c12 -2 32 -2 45 0 12 2 2 4 -23 4 -25 0 -35 -2 -22 -4z"/>
<path d="M2108 5013 c12 -2 30 -2 40 0 9 3 -1 5 -23 4 -22 0 -30 -2 -17 -4z"/>
<path d="M2248 5013 c7 -3 16 -2 19 1 4 3 -2 6 -13 5 -11 0 -14 -3 -6 -6z"/>
<path d="M2308 5003 c7 -3 16 -2 19 1 4 3 -2 6 -13 5 -11 0 -14 -3 -6 -6z"/>
<path d="M2860 5000 c0 -5 5 -10 11 -10 5 0 7 5 4 10 -3 6 -8 10 -11 10 -2 0
-4 -4 -4 -10z"/>
<path d="M3105 5000 c3 -5 8 -10 11 -10 2 0 4 5 4 10 0 6 -5 10 -11 10 -5 0
-7 -4 -4 -10z"/>
<path d="M3210 5000 c0 -5 5 -10 11 -10 5 0 7 5 4 10 -3 6 -8 10 -11 10 -2 0
-4 -4 -4 -10z"/>
<path d="M3450 4990 c0 -5 14 -10 32 -10 36 0 35 4 -4 14 -17 4 -28 2 -28 -4z"/>
<path d="M4395 4980 c28 -12 45 -12 45 0 0 6 -15 10 -32 9 -28 0 -30 -2 -13
-9z"/>
<path d="M544 4966 c15 -9 34 -16 42 -16 7 0 20 -10 28 -22 9 -12 19 -18 23
-14 4 4 0 13 -10 20 -9 7 -17 18 -17 25 0 6 -10 11 -22 11 -13 0 -34 3 -48 6
-23 5 -23 5 4 -10z"/>
<path d="M1600 4959 c-36 -3 -71 -4 -77 -2 -7 3 -13 -1 -13 -8 0 -8 12 -15 30
-16 17 -1 30 1 30 6 0 4 27 9 60 10 l60 2 0 -71 c0 -56 -3 -70 -15 -70 -8 0
-15 5 -15 10 0 7 -6 7 -20 0 -14 -7 -20 -7 -20 0 0 5 5 10 10 10 6 0 10 5 10
10 0 19 -28 10 -33 -11 -5 -17 -10 -20 -29 -14 -13 3 -31 7 -40 7 -9 -1 -19 7
-21 16 -3 12 -5 10 -6 -5 -2 -34 -41 -32 -41 2 0 14 -4 25 -10 25 -5 0 -7 -7
-3 -15 3 -9 2 -15 -3 -14 -20 3 -35 -2 -29 -10 8 -13 -10 -22 -30 -15 -8 4
-15 14 -13 23 1 9 -1 21 -5 28 -12 19 -37 3 -37 -23 0 -15 -6 -24 -15 -24 -11
0 -15 11 -15 40 0 33 -3 40 -20 40 -21 0 -40 -27 -40 -59 0 -27 -20 -27 -21
-1 -3 36 -4 40 -14 40 -5 -1 -10 -9 -9 -19 0 -13 -6 -16 -23 -13 -15 3 -25 -1
-29 -12 -11 -29 -26 -17 -22 19 3 25 0 35 -10 35 -10 0 -12 -7 -8 -24 3 -14 2
-27 -3 -30 -5 -3 -8 6 -8 20 0 14 -6 31 -13 37 -10 10 -11 6 -6 -15 10 -42 -1
-57 -38 -54 -18 2 -38 6 -44 10 -6 3 -12 0 -15 -6 -3 -10 -7 -10 -19 -1 -10 9
-24 10 -49 3 -18 -6 -38 -10 -43 -10 -4 0 -6 32 -2 70 l6 70 -43 0 c-23 0 -37
-4 -30 -8 7 -4 13 -36 15 -74 l3 -67 505 -6 c278 -3 735 -7 1015 -10 281 -3
602 -9 715 -15 113 -5 232 -10 265 -12 l60 -2 -1 32 c-3 79 -6 106 -11 95 -2
-7 -12 -13 -20 -13 -9 0 -13 -6 -9 -15 3 -8 1 -15 -4 -15 -6 0 -10 -7 -10 -16
0 -8 4 -13 9 -10 10 6 25 -24 16 -32 -3 -3 -5 0 -5 8 0 10 -3 10 -14 1 -14
-12 -262 -10 -531 4 -60 3 -164 5 -230 5 -66 0 -151 0 -190 0 -38 0 -94 0
-124 0 l-54 -1 6 77 c7 76 7 76 -16 70 -12 -3 -25 -6 -28 -6 -4 0 -10 -31 -14
-70 -5 -50 -11 -70 -21 -70 -23 0 -19 116 4 129 13 8 7 10 -30 11 l-48 0 0
-71 0 -71 -27 7 c-16 4 -63 6 -107 6 l-79 -2 5 71 5 70 -61 0 c-33 0 -77 4
-96 8 -19 4 -64 5 -100 1z m186 -50 c-3 -17 -6 -47 -6 -65 0 -22 -5 -34 -13
-34 -10 0 -13 16 -11 63 2 34 3 63 4 65 0 1 7 2 16 2 13 0 15 -7 10 -31z m49
-3 c0 -13 -3 -22 -7 -20 -4 3 -11 -3 -15 -11 -7 -11 -9 -6 -10 20 -1 26 3 35
15 35 11 0 17 -8 17 -24z m272 -36 c-1 -33 -5 -60 -10 -60 -5 0 -7 14 -3 31 4
23 2 35 -11 44 -19 14 -11 45 11 45 11 0 14 -13 13 -60z m-357 40 c0 -5 -4
-10 -10 -10 -5 0 -10 5 -10 10 0 6 5 10 10 10 6 0 10 -4 10 -10z m440 6 c0 -3
-4 -8 -10 -11 -5 -3 -10 -1 -10 4 0 6 5 11 10 11 6 0 10 -2 10 -4z m-353 -88
c-3 -7 -5 -2 -5 12 0 14 2 19 5 13 2 -7 2 -19 0 -25z"/>
<path d="M620 4956 c0 -8 51 -13 56 -5 3 5 -9 9 -25 9 -17 0 -31 -2 -31 -4z"/>
<path d="M720 4940 c0 -11 2 -20 4 -20 2 0 6 9 9 20 3 11 1 20 -4 20 -5 0 -9
-9 -9 -20z"/>
<path d="M922 4952 c-29 -3 -31 -5 -21 -24 6 -12 11 -39 11 -62 -1 -22 2 -35
6 -30 4 6 15 10 25 8 13 -2 17 5 17 27 0 31 -19 32 -21 1 0 -12 -4 -10 -12 7
-9 19 -9 25 0 28 7 3 9 12 6 21 -4 13 -2 13 11 -3 15 -17 17 -17 12 -2 -4 14
1 17 32 18 44 1 72 5 80 13 5 6 -76 5 -146 -2z"/>
<path d="M1080 4949 c0 -5 8 -9 18 -7 9 1 22 -1 29 -5 6 -4 14 -3 17 2 3 5 21
5 41 1 19 -4 37 -4 40 0 2 4 -19 10 -48 14 -74 8 -97 8 -97 -5z"/>
<path d="M4179 4953 c0 -4 0 -26 1 -49 1 -34 -2 -42 -25 -52 -14 -7 -29 -12
-32 -12 -3 0 -3 25 -1 55 4 49 3 55 -15 55 -16 0 -17 -3 -8 -14 15 -18 6 -141
-15 -211 -13 -40 -17 -122 -20 -415 -2 -232 0 -352 6 -330 5 19 8 71 6 115 -2
44 -1 200 3 346 4 199 9 270 19 282 8 9 10 22 6 28 -4 7 -3 9 3 6 14 -9 72 51
78 78 10 49 12 116 4 121 -5 3 -9 2 -10 -3z"/>
<path d="M758 4943 c7 -3 16 -2 19 1 4 3 -2 6 -13 5 -11 0 -14 -3 -6 -6z"/>
<path d="M1262 4940 c15 -4 51 -4 80 0 51 7 50 8 -27 8 -56 0 -72 -2 -53 -8z"/>
<path d="M1412 4945 c8 -8 77 -9 85 -2 3 4 -15 7 -42 7 -27 0 -46 -2 -43 -5z"/>
<path d="M1875 4941 c3 -6 15 -11 26 -11 11 0 17 -4 14 -10 -3 -5 -2 -10 4
-10 5 0 14 7 19 16 7 12 15 14 33 8 38 -12 59 -12 59 1 0 8 -26 13 -81 14 -55
1 -79 -1 -74 -8z"/>
<path d="M2232 4938 c2 -5 7 -9 11 -9 4 1 26 1 50 1 30 0 38 3 27 10 -19 12
-92 10 -88 -2z"/>
<path d="M2356 4934 c-5 -12 -2 -15 10 -10 9 4 24 1 33 -6 14 -11 14 -11 3 4
-11 14 -10 17 10 21 15 3 11 5 -13 6 -26 1 -39 -4 -43 -15z"/>
<path d="M2450 4941 c0 -9 41 -23 48 -16 2 2 1 8 -3 14 -8 13 -45 15 -45 2z"/>
<path d="M2514 4939 c-5 -9 -2 -10 9 -6 10 3 17 2 17 -3 0 -10 46 -7 57 3 3 4
-5 7 -20 7 -14 0 -32 3 -40 6 -8 3 -18 0 -23 -7z"/>
<path d="M3944 4923 c9 -42 10 -142 3 -150 -16 -15 -26 16 -29 87 -3 69 -5 75
-25 78 -13 2 -23 -1 -23 -7 0 -6 6 -11 14 -11 8 0 17 -7 20 -16 9 -23 8 -27
-9 -20 -16 6 -23 -12 -28 -79 l-3 -40 -12 28 c-7 16 -12 55 -12 87 l0 58 -60
1 c-55 0 -60 -1 -60 -20 0 -18 2 -19 15 -9 17 14 20 3 6 -19 -8 -12 -12 -13
-25 -2 -9 8 -15 21 -14 29 2 11 -4 16 -17 16 -52 -2 -56 -4 -50 -23 4 -15 -1
-23 -22 -33 -21 -10 -27 -19 -25 -37 5 -35 -7 -71 -23 -71 -11 0 -15 13 -15
55 l0 56 -22 -20 c-11 -11 -25 -18 -30 -15 -6 4 -8 -8 -6 -27 2 -19 -2 -34 -9
-36 -9 -3 -13 8 -13 35 0 34 -3 39 -22 38 -19 -1 -24 -8 -26 -36 -2 -19 -8
-41 -14 -47 -12 -15 2 -16 322 -19 118 -1 224 -2 234 -3 19 -1 19 -12 13 -398
-4 -218 -8 -398 -10 -399 -4 -4 -1224 -3 -1427 0 -85 2 -220 7 -300 11 -209
10 -306 12 -887 20 -521 8 -522 8 -526 29 -2 11 -1 -35 1 -103 4 -103 3 -123
-9 -119 -16 5 -18 46 -20 468 -1 146 -4 254 -6 240 -8 -43 -21 -45 -28 -4 -4
22 -8 43 -9 48 -1 5 0 -163 2 -372 3 -230 1 -382 -5 -382 -5 0 -15 6 -22 13
-10 10 -12 9 -9 -6 3 -18 108 -21 1343 -32 460 -4 817 -12 935 -22 101 -8 293
-10 685 -4 132 2 282 1 333 -2 84 -5 115 2 77 17 -11 4 -15 22 -15 72 0 59 -2
65 -16 54 -12 -11 -14 -25 -8 -67 l6 -53 -65 0 -65 0 1 56 c1 61 -18 88 -58
82 -17 -3 -20 -12 -23 -70 -2 -53 -6 -68 -18 -68 -13 0 -15 15 -13 90 2 65 6
89 15 86 6 -2 33 -8 59 -11 34 -6 49 -4 55 6 6 9 11 2 18 -22 6 -19 11 -26 11
-17 1 9 6 18 12 20 9 3 12 109 11 393 0 239 3 392 9 396 5 3 12 23 16 43 6 36
5 38 -16 31 -12 -4 -21 -2 -21 4 0 6 7 11 15 11 11 0 13 14 10 78 l-4 77 -37
3 c-35 3 -36 2 -30 -25z m-258 -17 c8 -35 0 -129 -13 -133 -11 -4 -25 121 -16
144 8 21 22 15 29 -11z m115 4 c6 0 6 -8 -1 -19 -5 -11 -10 -40 -10 -65 0 -34
-4 -46 -15 -46 -12 0 -15 15 -15 71 0 61 2 70 16 65 9 -3 20 -6 25 -6z m195
-17 c-10 -10 -19 5 -10 18 6 11 8 11 12 0 2 -7 1 -15 -2 -18z m7 -51 c4 -21 3
-31 -3 -27 -6 3 -10 20 -10 37 0 38 5 34 13 -10z m-3213 -424 c0 -5 -4 -8 -10
-8 -5 0 -10 10 -10 23 0 18 2 19 10 7 5 -8 10 -18 10 -22z m0 -125 c0 -44 -4
-72 -8 -65 -12 18 -13 142 -2 142 6 0 10 -34 10 -77z m-3 -163 c3 -62 -11 -74
-15 -14 -2 37 2 64 11 64 1 0 3 -22 4 -50z m3 -146 c0 -8 -4 -12 -10 -9 -5 3
-10 13 -10 21 0 8 5 12 10 9 6 -3 10 -13 10 -21z m121 -36 l0 -23 10 24 c7 18
12 21 23 12 11 -9 15 -9 18 0 3 9 15 10 43 4 36 -8 37 -9 13 -13 -28 -3 -28
-4 -26 -70 l1 -67 6 60 c5 45 10 61 23 63 11 2 18 -5 21 -20 3 -15 5 -11 6 14
l1 37 55 -1 c43 -1 55 -5 56 -17 0 -9 1 -47 1 -86 0 -38 2 -60 5 -47 2 12 9
20 14 17 5 -4 9 1 9 9 0 8 -4 18 -10 21 -13 8 -13 52 1 61 8 4 7 9 -2 15 -7 4
-10 11 -6 15 3 4 13 1 22 -6 12 -10 15 -10 15 5 0 13 5 15 18 9 18 -8 27 -8
129 -2 l62 3 3 -82 3 -81 -45 -1 c-333 -6 -373 -5 -364 11 6 10 4 10 -9 0 -21
-17 -117 -23 -122 -8 -2 6 -6 46 -9 89 -5 72 -4 77 14 77 14 0 20 -7 21 -22z
m589 -63 c0 -71 -3 -85 -16 -85 -14 0 -15 11 -11 74 4 67 11 96 23 96 2 0 4
-38 4 -85z m90 -6 c0 -68 -3 -90 -12 -87 -9 3 -14 33 -16 91 -2 73 0 87 13 87
12 0 15 -16 15 -91z m110 -5 c0 -72 -3 -95 -12 -92 -17 6 -23 155 -7 174 6 8
13 14 15 14 2 0 4 -43 4 -96z m92 -11 c3 -74 1 -83 -14 -83 -16 0 -18 11 -18
83 0 46 3 87 7 91 14 14 21 -12 25 -91z m83 87 c4 -6 3 -46 -1 -90 -5 -56 -11
-80 -20 -80 -10 0 -12 19 -9 88 2 48 4 88 5 90 1 6 20 1 25 -8z m102 -10 c2 0
3 -5 3 -11 0 -6 -7 -8 -16 -5 -13 5 -15 -4 -13 -62 1 -37 -2 -68 -7 -69 -5 -2
-10 25 -10 59 -1 35 -7 64 -13 66 -6 2 -11 12 -11 22 0 16 4 17 32 9 18 -5 34
-9 35 -9z m103 11 c0 -3 26 -6 58 -5 31 0 70 -2 85 -5 28 -6 28 -7 30 -84 2
-68 0 -77 -15 -77 -15 0 -18 9 -18 58 0 52 -2 58 -27 69 -15 7 -29 10 -32 7
-3 -3 -8 -36 -11 -73 l-5 -67 -42 9 c-26 5 -43 14 -46 25 -3 12 -5 11 -6 -5
-1 -13 -7 -23 -16 -23 -17 0 -17 2 -15 81 1 41 -3 59 -15 69 -16 13 -16 15 2
21 22 8 73 8 73 0z m775 -23 c28 0 105 1 172 3 79 3 126 0 133 -7 16 -16 1
-174 -16 -174 -8 0 -14 6 -14 13 0 9 -2 9 -9 -1 -8 -14 -23 -3 -34 28 -3 9 -6
3 -6 -12 -1 -29 -14 -37 -27 -17 -4 7 -7 26 -6 43 0 28 -1 29 -9 8 -4 -12 -6
-28 -4 -35 4 -8 -6 -12 -32 -11 -35 1 -38 4 -41 32 -2 18 -7 32 -12 32 -5 0
-7 7 -4 15 7 18 -32 21 -56 4 -11 -8 -8 -9 13 -4 19 4 26 2 22 -5 -3 -5 1 -13
9 -16 27 -10 20 -44 -9 -44 -20 0 -25 5 -25 25 0 14 -4 25 -10 25 -5 0 -7 -13
-3 -32 6 -31 6 -31 -27 -25 -18 4 -41 7 -51 7 -11 0 -19 7 -20 18 0 12 -3 11
-10 -6 -9 -23 -36 -26 -31 -3 1 6 -2 11 -8 11 -5 0 -10 -4 -10 -10 0 -5 -9
-10 -20 -10 -22 0 -27 25 -9 50 7 11 12 12 15 3 8 -19 32 -4 27 18 -7 24 -11
24 -40 -3 -19 -17 -23 -19 -17 -5 4 10 1 17 -6 17 -9 0 -10 -12 -6 -43 l7 -43
-83 1 -83 1 3 40 c4 48 -21 68 -44 37 -7 -10 -14 -13 -14 -6 0 6 5 15 10 18
15 9 12 25 -5 25 -15 0 -19 -23 -15 -82 1 -20 -3 -28 -14 -28 -13 0 -16 12
-16 55 0 60 -9 67 -47 36 -17 -14 -23 -30 -23 -59 0 -35 -3 -39 -19 -35 -17 4
-19 14 -19 68 0 35 -3 68 -6 73 -3 6 0 13 6 15 7 3 121 3 253 1 132 -3 263 -6
290 -6z m392 -83 c0 -65 -4 -94 -11 -92 -7 2 -10 35 -10 88 1 69 -1 85 -15 91
-11 5 -9 7 11 7 l26 1 -1 -95z m94 51 c7 -75 -2 -146 -16 -146 -10 0 -14 19
-13 78 0 42 2 85 5 95 8 31 21 18 24 -27z m109 -53 c-3 -49 -9 -88 -15 -88
-14 0 -18 125 -5 159 18 47 25 21 20 -71z m115 76 c-3 -5 1 -6 9 -3 9 3 16 1
16 -5 0 -6 -4 -11 -10 -11 -6 0 -10 -30 -10 -70 0 -63 -2 -70 -20 -70 -18 0
-20 7 -20 71 0 71 13 115 31 104 5 -4 7 -11 4 -16z m90 -124 c-1 -16 -6 -30
-11 -30 -11 0 -18 142 -8 164 8 17 21 -80 19 -134z m100 54 c0 -68 -3 -84 -15
-84 -18 0 -24 49 -15 123 11 85 30 60 30 -39z m-1759 -5 c-9 -8 -16 -11 -16
-5 0 5 4 12 10 16 5 3 7 13 4 23 -5 15 -4 15 6 -1 9 -13 8 -21 -4 -33z m1714
26 c0 -5 -4 -10 -10 -10 -5 0 -10 5 -10 10 0 6 5 10 10 10 6 0 10 -4 10 -10z
m-1513 -22 c-3 -8 -6 -5 -6 6 -1 11 2 17 5 13 3 -3 4 -12 1 -19z m1474 -1
c-10 -9 -11 -8 -5 6 3 10 9 15 12 12 3 -3 0 -11 -7 -18z m-1162 -20 c0 -9 -2
-9 -6 0 -3 10 -8 10 -19 -1 -18 -19 -18 -27 1 -20 8 4 15 2 15 -4 0 -5 -9 -12
-20 -15 -25 -6 -27 19 -4 44 17 19 35 17 33 -4z m1188 1 c-3 -8 -6 -5 -6 6 -1
11 2 17 5 13 3 -3 4 -12 1 -19z m-2920 -20 c-3 -8 -6 -5 -6 6 -1 11 2 17 5 13
3 -3 4 -12 1 -19z m90 0 c-3 -8 -6 -5 -6 6 -1 11 2 17 5 13 3 -3 4 -12 1 -19z
m1543 2 c0 -12 -7 -20 -17 -20 -15 0 -16 2 -3 10 12 8 12 10 -5 11 l-20 0 20
9 c11 5 21 9 23 9 1 1 2 -8 2 -19z m-419 -13 c-10 -9 -11 -8 -5 6 3 10 9 15
12 12 3 -3 0 -11 -7 -18z m309 -2 c0 -8 -7 -15 -15 -15 -13 0 -14 3 -3 15 16
18 18 18 18 0z"/>
<path d="M1322 3914 c-2 -22 0 -24 12 -14 8 6 12 18 9 26 -8 22 -18 16 -21
-12z"/>
<path d="M1243 3895 c0 -22 2 -30 4 -17 2 12 2 30 0 40 -3 9 -5 -1 -4 -23z"/>
<path d="M953 3880 c0 -25 2 -35 4 -22 2 12 2 32 0 45 -2 12 -4 2 -4 -23z"/>
<path d="M1203 3865 c0 -33 2 -45 4 -27 2 18 2 45 0 60 -2 15 -4 0 -4 -33z"/>
<path d="M1382 3890 c0 -19 2 -27 5 -17 2 9 2 25 0 35 -3 9 -5 1 -5 -18z"/>
<path d="M1026 3842 c-2 -4 -1 -14 5 -22 7 -12 9 -10 9 8 0 23 -5 28 -14 14z"/>
<path d="M1381 3834 c0 -11 3 -14 6 -6 3 7 2 16 -1 19 -3 4 -6 -2 -5 -13z"/>
<path d="M2617 3850 c3 -11 9 -20 14 -20 11 0 11 3 3 24 -9 23 -23 20 -17 -4z"/>
<path d="M2993 3863 c-16 -6 -17 -69 -2 -79 9 -5 10 1 5 20 -3 14 -2 35 4 46
6 11 9 20 8 19 -2 0 -9 -3 -15 -6z"/>
<path d="M2560 3825 c0 -19 4 -35 8 -35 5 0 7 13 4 29 -3 22 0 30 15 34 15 4
14 5 -4 6 -20 1 -23 -4 -23 -34z"/>
<path d="M3010 3820 c0 -5 5 -10 10 -10 6 0 10 5 10 10 0 6 -4 10 -10 10 -5 0
-10 -4 -10 -10z"/>
<path d="M4217 4908 c2 -24 9 -56 14 -72 6 -19 5 -33 -1 -41 -8 -9 -4 -11 16
-7 14 2 22 7 16 11 -5 3 -12 25 -15 49 -4 32 -1 44 11 53 14 8 12 9 -7 3 -22
-6 -23 -4 -17 20 5 19 2 26 -8 26 -11 0 -13 -10 -9 -42z"/>
<path d="M4295 4940 c-11 -18 -2 -20 37 -8 31 9 43 8 83 -12 25 -12 49 -20 52
-16 4 3 -1 6 -10 6 -9 0 -22 8 -29 18 -16 21 -121 31 -133 12z"/>
<path d="M2612 4935 c7 -8 128 -8 135 -1 4 3 -27 6 -67 6 -40 0 -71 -2 -68 -5z"/>
<path d="M3078 4933 c6 -2 18 -2 25 0 6 3 1 5 -13 5 -14 0 -19 -2 -12 -5z"/>
<path d="M3570 4930 c-10 -6 -7 -10 13 -16 34 -8 46 1 20 14 -11 6 -25 7 -33
2z"/>
<path d="M3438 4918 c17 -8 26 -8 34 0 9 9 4 12 -22 11 -33 0 -34 -1 -12 -11z"/>
<path d="M3495 4920 c-3 -5 1 -10 10 -10 9 0 13 5 10 10 -3 6 -8 10 -10 10 -2
0 -7 -4 -10 -10z"/>
<path d="M3535 4920 c-3 -5 -1 -10 4 -10 6 0 11 5 11 10 0 6 -2 10 -4 10 -3 0
-8 -4 -11 -10z"/>
<path d="M996 4905 c-3 -9 -6 -22 -5 -28 0 -7 5 -1 10 12 5 13 8 26 5 28 -2 2
-6 -3 -10 -12z"/>
<path d="M1970 4903 c0 -12 5 -25 10 -28 13 -8 13 15 0 35 -8 12 -10 11 -10
-7z"/>
<path d="M4387 4903 c-20 -20 0 -123 24 -123 6 0 6 7 -1 20 -14 26 -9 82 7 87
7 3 15 -10 19 -31 3 -20 11 -39 17 -43 6 -4 8 0 4 10 -4 10 0 20 10 25 13 8
10 13 -15 31 -19 13 -37 18 -48 14 -12 -4 -15 -3 -10 5 8 13 3 16 -7 5z"/>
<path d="M1531 4874 c0 -12 6 -24 14 -28 9 -3 15 0 15 10 0 8 -4 13 -9 9 -5
-3 -12 3 -14 12 -4 14 -5 14 -6 -3z"/>
<path d="M4506 4881 c5 -5 20 -12 34 -15 l25 -7 -25 15 c-28 17 -50 21 -34 7z"/>
<path d="M720 4871 c0 -5 -10 -12 -22 -14 -23 -4 -23 -4 -1 -6 14 -1 23 -9 26
-23 3 -14 5 -9 6 15 0 20 -1 37 -4 37 -3 0 -5 -4 -5 -9z"/>
<path d="M4275 4870 c-11 -18 4 -80 19 -80 11 0 12 9 4 42 -11 49 -13 54 -23
38z"/>
<path d="M4322 4833 c2 -34 8 -49 19 -51 14 -3 15 3 8 40 -4 24 -8 46 -9 51 0
4 -5 7 -11 7 -6 0 -9 -18 -7 -47z"/>
<path d="M4570 4856 c0 -2 7 -7 16 -10 8 -3 12 -2 9 4 -6 10 -25 14 -25 6z"/>
<path d="M4497 4830 c3 -11 9 -23 14 -26 5 -3 6 2 3 10 -3 9 -1 16 5 16 6 0
11 5 11 10 0 6 -9 10 -19 10 -14 0 -18 -5 -14 -20z"/>
<path d="M4628 4828 c12 -6 22 -15 22 -19 0 -18 -19 -17 -53 1 -43 23 -58 25
-51 6 3 -7 31 -22 62 -32 66 -22 90 -25 98 -13 3 5 -4 9 -15 9 -29 0 -37 20
-11 27 19 5 17 8 -16 19 -46 16 -68 17 -36 2z"/>
<path d="M688 4803 c7 -3 16 -2 19 1 4 3 -2 6 -13 5 -11 0 -14 -3 -6 -6z"/>
<path d="M4718 4803 c6 -2 18 -2 25 0 6 3 1 5 -13 5 -14 0 -19 -2 -12 -5z"/>
<path d="M721 4784 c0 -11 3 -14 6 -6 3 7 2 16 -1 19 -3 4 -6 -2 -5 -13z"/>
<path d="M4460 4796 c0 -2 17 -14 38 -26 20 -13 31 -25 25 -27 -21 -8 -15 -20
12 -25 34 -7 31 8 -7 40 -29 25 -68 46 -68 38z"/>
<path d="M4768 4793 c7 -3 16 -2 19 1 4 3 -2 6 -13 5 -11 0 -14 -3 -6 -6z"/>
<path d="M4840 4775 c19 -7 44 -14 55 -14 11 0 0 7 -25 15 -57 17 -77 17 -30
-1z"/>
<path d="M822 4760 c0 -14 2 -19 5 -12 2 6 2 18 0 25 -3 6 -5 1 -5 -13z"/>
<path d="M4051 4764 c0 -11 3 -14 6 -6 3 7 2 16 -1 19 -3 4 -6 -2 -5 -13z"/>
<path d="M4725 4762 c6 -5 30 -12 55 -16 55 -7 34 9 -25 19 -27 5 -37 4 -30
-3z"/>
<path d="M867 4753 c-3 -5 -5 -47 -5 -95 l-1 -86 72 1 72 2 3 93 3 92 -70 0
c-38 0 -72 -3 -74 -7z"/>
<path d="M1044 4753 c-6 -2 -10 -14 -8 -26 2 -12 5 -51 7 -87 l3 -65 62 -3 62
-3 0 86 c0 60 -4 87 -12 90 -21 6 -102 12 -114 8z"/>
<path d="M1233 4753 c-9 -3 -13 -31 -13 -89 l0 -84 34 0 c18 0 54 3 80 6 l46
7 0 77 0 77 -52 7 c-60 7 -78 7 -95 -1z"/>
<path d="M1445 4750 c-33 -4 -54 -7 -47 -8 8 -2 12 -26 12 -82 l0 -80 70 0 70
0 0 78 c0 75 -10 104 -34 100 -6 -1 -38 -4 -71 -8z"/>
<path d="M4220 4756 c0 -2 7 -9 15 -16 13 -11 14 -10 9 4 -5 14 -24 23 -24 12z"/>
<path d="M1598 4671 l-3 -80 88 -3 87 -3 0 83 0 82 -84 0 -84 0 -4 -79z"/>
<path d="M1848 4743 l-47 -4 1 -62 c1 -34 -1 -69 -3 -77 -3 -13 9 -14 81 -11
47 2 86 4 88 6 2 1 0 37 -4 79 l-7 76 -31 -2 c-17 -1 -52 -3 -78 -5z"/>
<path d="M2110 4742 l-75 -3 -2 -268 -2 -268 79 -1 80 -1 0 85 0 85 -75 -5
c-41 -3 -75 -1 -75 4 0 13 28 20 85 20 61 0 61 0 64 113 l2 57 -70 0 c-38 0
-73 5 -76 10 -4 6 20 10 63 10 82 0 84 2 75 95 -4 46 -2 65 6 65 7 0 11 -20
11 -52 0 -97 2 -98 87 -98 55 0 74 -3 71 -12 -3 -9 -31 -14 -82 -16 -75 -3
-78 -4 -72 -25 3 -12 6 -50 6 -84 l0 -63 75 0 75 0 1 73 c2 116 2 128 -2 207
l-3 75 -85 0 c-47 0 -120 -1 -161 -3z"/>
<path d="M2447 4743 l-27 -4 5 -182 c3 -100 8 -220 10 -267 l5 -85 62 2 c35 0
70 1 79 2 13 1 16 15 18 76 l2 75 -80 0 c-45 0 -81 4 -81 9 0 15 28 21 96 21
l64 0 0 90 0 90 -79 0 c-44 0 -83 5 -86 10 -4 6 23 10 74 10 l81 0 0 74 0 73
-46 7 c-26 3 -52 5 -58 5 -6 -1 -23 -4 -39 -6z"/>
<path d="M4165 4742 c-25 -17 -56 -74 -52 -95 4 -22 4 -22 6 2 0 13 15 41 32
62 31 39 33 45 14 31z"/>
<path d="M4830 4730 c0 -12 5 -17 14 -14 7 3 16 -3 20 -12 6 -16 8 -16 21 2
12 17 11 20 -8 31 -32 18 -47 16 -47 -7z"/>
<path d="M4983 4743 c9 -2 23 -2 30 0 6 3 -1 5 -18 5 -16 0 -22 -2 -12 -5z"/>
<path d="M2612 4729 c6 -4 11 -34 10 -68 l0 -61 79 0 79 0 0 69 0 69 -89 -2
c-49 0 -84 -4 -79 -7z"/>
<path d="M2868 4733 c-15 -4 -17 -34 -17 -350 -1 -190 -3 -348 -5 -351 -3 -2
-17 0 -32 5 -27 9 -28 12 -29 82 l0 72 -29 -5 c-16 -3 -53 -6 -82 -6 l-54 0 0
-65 c0 -37 -4 -65 -10 -65 -11 0 -14 23 -10 88 l2 42 -87 0 -88 0 6 -41 c3
-23 3 -56 0 -75 -5 -29 -9 -34 -34 -34 -29 0 -29 0 -29 64 0 74 -2 76 -91 76
l-59 0 5 -60 c4 -47 3 -60 -9 -60 -18 0 -26 22 -26 76 0 39 -3 44 -22 45 -13
1 -48 3 -78 5 l-55 3 0 -57 c0 -54 -1 -57 -25 -57 -23 0 -26 5 -35 60 l-10 60
-77 1 -77 1 5 -46 c3 -25 8 -52 10 -59 3 -9 -4 -12 -19 -10 -19 3 -22 10 -25
55 l-3 52 -90 3 -89 3 0 -68 c0 -65 -1 -68 -22 -65 -15 2 -23 10 -24 23 -1 11
-2 38 -3 60 l-1 40 -69 3 -68 3 -7 -32 c-3 -17 -6 -44 -6 -60 0 -16 -4 -29
-10 -29 -6 0 -10 26 -10 59 l0 59 -80 4 -80 3 0 -67 c0 -37 -4 -69 -8 -72 -18
-11 -31 13 -34 64 l-3 55 -65 0 -65 0 0 -63 c0 -50 -3 -62 -15 -60 -11 2 -16
19 -18 60 -3 64 -4 65 -89 60 l-54 -4 3 -66 3 -66 115 0 c63 0 167 1 230 4 63
2 187 3 275 2 88 0 183 2 210 5 98 12 363 6 555 -13 109 -10 476 -12 650 -3
44 3 273 -12 320 -20 30 -5 98 -7 150 -6 52 2 142 4 200 3 184 -1 193 -1 277
3 l83 4 0 78 0 77 -71 0 -72 0 5 -70 c6 -74 4 -82 -18 -73 -10 4 -14 24 -14
74 l0 69 -70 0 -70 0 0 -66 0 -65 -42 3 -43 3 -3 66 -3 67 -66 -2 -65 -1 -4
-37 c-2 -21 1 -38 6 -38 6 0 10 -7 10 -15 0 -8 -4 -15 -10 -15 -5 0 -7 -7 -4
-15 4 -8 1 -15 -5 -15 -16 0 -20 15 -24 80 l-3 55 -59 3 c-76 3 -101 13 -60
22 17 4 49 8 73 9 42 1 42 1 43 39 1 20 2 56 3 80 l1 42 -50 0 c-27 0 -60 3
-71 6 -21 6 -22 3 -29 -171 -7 -174 -8 -177 -29 -171 -11 3 -24 6 -28 6 -5 0
-8 36 -8 80 l0 80 -65 0 -65 0 0 -81 c0 -51 -4 -78 -10 -74 -5 3 -10 40 -10
81 l0 74 -70 0 c-84 0 -95 19 -12 22 31 0 63 1 70 1 13 -1 16 56 6 120 l-7 37
-63 0 c-34 0 -66 5 -69 10 -4 6 20 10 64 10 56 0 71 3 72 15 1 8 3 30 4 48 2
17 1 49 -2 70 l-5 37 -69 0 c-39 0 -69 4 -69 10 0 6 30 10 70 10 l71 0 -3 78
-3 77 -55 2 c-30 0 -63 -1 -72 -4z m-1779 -627 c9 -10 8 -15 -3 -19 -16 -7
-26 1 -26 20 0 17 14 17 29 -1z"/>
<path d="M4403 4733 c9 -2 25 -2 35 0 9 3 1 5 -18 5 -19 0 -27 -2 -17 -5z"/>
<path d="M5058 4733 c12 -2 32 -2 45 0 12 2 2 4 -23 4 -25 0 -35 -2 -22 -4z"/>
<path d="M3031 4656 l-2 -74 65 -4 66 -3 -5 65 c-6 75 -15 85 -77 88 l-44 3
-3 -75z"/>
<path d="M5138 4723 c6 -2 18 -2 25 0 6 3 1 5 -13 5 -14 0 -19 -2 -12 -5z"/>
<path d="M3239 4717 c-1 -1 -3 -75 -5 -164 l-3 -163 72 0 72 0 -3 80 -4 80
-44 1 c-24 1 -48 3 -54 4 -5 1 -15 3 -21 4 -5 0 -7 6 -4 11 3 6 33 10 66 10
l59 0 1 43 c1 23 3 53 4 67 3 24 2 25 -66 27 -38 0 -70 0 -70 0z"/>
<path d="M3700 4711 c-14 -4 -27 -17 -31 -31 -6 -24 -6 -24 -11 5 -2 18 -6 0
-9 -43 l-4 -72 61 0 61 0 7 46 c12 88 9 100 -21 101 -16 0 -39 -2 -53 -6z"/>
<path d="M3801 4706 c5 -6 9 -31 9 -57 0 -75 3 -79 76 -79 l64 0 0 44 c0 24
-3 57 -6 75 l-6 31 -74 -3 c-46 -1 -69 -6 -63 -11z"/>
<path d="M4920 4712 c0 -13 38 -22 42 -10 6 16 48 -1 48 -18 0 -14 2 -14 15 0
12 11 23 12 47 5 18 -5 46 -9 63 -8 23 1 17 4 -25 15 -79 19 -190 29 -190 16z"/>
<path d="M5200 4710 c14 -4 34 -8 45 -8 16 0 15 2 -5 8 -14 4 -34 8 -45 8 -16
0 -15 -2 5 -8z"/>
<path d="M3415 4668 c-4 -24 -8 -55 -10 -70 l-3 -28 79 0 79 0 0 70 0 70 -69
0 -68 0 -8 -42z"/>
<path d="M4832 4670 c0 -14 2 -19 5 -12 2 6 2 18 0 25 -3 6 -5 1 -5 -13z"/>
<path d="M5166 4631 c-3 -31 -6 -138 -7 -238 l-1 -181 -24 -6 c-23 -6 -34 -26
-14 -26 6 0 10 4 10 9 0 6 12 4 26 -4 17 -9 50 -11 102 -9 42 3 136 -1 207 -7
72 -6 151 -10 178 -10 38 2 47 -1 47 -15 0 -14 -10 -16 -74 -12 -41 2 -72 0
-70 -4 3 -5 14 -8 25 -8 10 0 19 -6 19 -12 0 -9 2 -10 8 -2 4 7 33 11 70 10
43 -1 62 3 62 11 0 7 -7 10 -15 7 -9 -4 -15 0 -15 10 0 9 7 16 15 16 8 0 15 9
15 19 0 16 -10 21 -52 26 -29 4 -57 6 -63 5 -28 -6 -34 3 -38 58 l-3 57 -2
-57 c-2 -51 -4 -56 -22 -51 -17 4 -20 14 -20 54 0 28 -5 49 -11 49 -6 0 -9
-20 -8 -52 2 -33 -1 -53 -9 -56 -8 -2 -12 11 -12 41 0 27 -6 49 -15 57 -13 11
-15 5 -15 -45 0 -41 -3 -56 -12 -53 -9 3 -15 35 -19 89 -3 46 -6 75 -8 64 -2
-12 -5 -15 -8 -7 -3 7 0 18 5 25 6 7 7 28 4 47 -3 19 -5 74 -4 123 1 63 -2 87
-11 87 -9 0 -11 -26 -9 -97 1 -54 -1 -153 -5 -220 -7 -103 -10 -121 -22 -113
-9 5 -15 25 -15 48 -1 22 -4 38 -8 36 -3 -2 -8 2 -11 8 -2 7 -8 -12 -12 -43
-5 -38 -11 -56 -21 -56 -11 0 -14 18 -15 71 -2 93 -6 125 -18 140 -12 14 -12
176 0 192 5 5 5 23 0 40 l-8 29 -6 -35 c-3 -19 -9 -123 -12 -230 -4 -107 -10
-199 -14 -203 -4 -4 -15 -5 -23 -2 -13 5 -16 30 -17 143 -1 75 -4 138 -6 141
-3 2 1 11 8 19 9 12 9 16 0 19 -8 3 -13 20 -12 41 l1 37 9 -30 c6 -21 7 -11 3
32 -4 53 -2 62 13 65 13 3 11 5 -8 9 -26 6 -27 4 -33 -50z m254 -361 c0 -5 -4
-10 -10 -10 -5 0 -10 5 -10 10 0 6 5 10 10 10 6 0 10 -4 10 -10z"/>
<path d="M5350 4680 c8 -5 28 -10 44 -10 39 0 30 6 -19 13 -27 4 -35 3 -25 -3z"/>
<path d="M722 4660 c0 -14 2 -19 5 -12 2 6 2 18 0 25 -3 6 -5 1 -5 -13z"/>
<path d="M5448 4663 c7 -3 16 -2 19 1 4 3 -2 6 -13 5 -11 0 -14 -3 -6 -6z"/>
<path d="M4140 4613 c0 -27 -3 -58 -6 -70 -5 -19 -2 -23 15 -23 19 0 21 5 21
70 0 56 -3 70 -15 70 -11 0 -15 -12 -15 -47z"/>
<path d="M5498 4653 c7 -3 16 -2 19 1 4 3 -2 6 -13 5 -11 0 -14 -3 -6 -6z"/>
<path d="M4236 4641 c-8 -12 -9 -539 -1 -551 3 -5 -20 -11 -52 -13 -32 -2 8
-4 90 -5 90 -1 147 -6 147 -12 0 -5 -6 -11 -12 -12 -7 -1 36 -4 97 -7 94 -5
110 -9 113 -23 3 -16 -5 -18 -60 -20 l-63 -1 65 -6 c49 -5 65 -10 65 -21 0 -8
-10 -16 -22 -18 l-22 -3 24 -39 c30 -48 31 -50 3 -51 -23 0 -23 0 1 -10 46
-18 53 -7 24 34 -23 32 -25 40 -13 47 18 11 18 109 1 120 -6 3 -12 34 -12 68
-1 34 -5 59 -10 56 -5 -3 -9 -32 -9 -65 0 -46 -3 -59 -15 -59 -8 0 -15 9 -15
20 0 14 -7 20 -21 20 -15 0 -19 4 -15 16 10 25 -4 84 -20 84 -8 0 -14 -1 -14
-2 -7 -71 -9 -110 -4 -100 8 17 24 15 24 -4 0 -11 6 -14 21 -9 15 5 20 3 17
-6 -5 -14 -108 -26 -108 -12 0 5 5 14 12 21 8 8 8 12 1 12 -7 0 -11 82 -12
262 0 143 -3 269 -6 280 -6 16 -18 18 -100 18 -52 0 -96 -4 -99 -9z m132 -37
c28 -6 31 -10 34 -53 3 -31 0 -50 -9 -57 -7 -6 -12 -26 -12 -45 l2 -34 7 35
c9 42 10 40 17 -24 4 -45 3 -48 -11 -37 -14 12 -16 10 -16 -13 0 -14 5 -26 10
-26 6 0 10 -4 10 -10 0 -6 -27 -10 -62 -10 -54 0 -60 2 -43 14 11 8 16 19 12
30 -9 23 -25 20 -30 -6 -3 -14 -5 -7 -6 17 -1 22 -4 73 -7 114 -6 97 -1 111
40 111 19 0 47 -3 64 -6z m152 -475 c0 -11 -4 -18 -10 -14 -5 3 -7 12 -3 20 7
21 13 19 13 -6z"/>
<path d="M4280 4545 c0 -33 4 -45 15 -45 12 0 15 10 13 45 -4 61 -28 61 -28 0z"/>
<path d="M4320 4545 c0 -33 4 -45 15 -45 11 0 15 12 15 45 0 33 -4 45 -15 45
-11 0 -15 -12 -15 -45z"/>
<path d="M4369 4578 c0 -7 -2 -21 -4 -32 -5 -24 5 -47 16 -40 12 7 11 84 -1
84 -5 0 -10 -6 -11 -12z"/>
<path d="M4330 4455 c0 -24 5 -35 15 -35 10 0 15 11 15 35 0 24 -5 35 -15 35
-10 0 -15 -11 -15 -35z"/>
<path d="M4280 4440 c0 -31 3 -38 15 -34 9 4 15 19 15 40 0 24 -5 34 -15 34
-11 0 -15 -11 -15 -40z"/>
<path d="M4330 4375 c0 -16 6 -25 15 -25 9 0 15 9 15 25 0 16 -6 25 -15 25 -9
0 -15 -9 -15 -25z"/>
<path d="M4551 4634 c0 -11 3 -14 6 -6 3 7 2 16 -1 19 -3 4 -6 -2 -5 -13z"/>
<path d="M4920 4625 c0 -15 4 -24 10 -20 6 3 10 12 10 20 0 8 -4 17 -10 20 -6
4 -10 -5 -10 -20z"/>
<path d="M5330 4606 c4 -25 3 -52 -2 -60 -5 -9 -8 -43 -6 -76 3 -50 5 -58 18
-49 11 8 12 12 3 16 -7 2 -13 9 -13 14 0 6 5 7 10 4 6 -3 10 0 10 9 0 8 -5 16
-11 18 -9 3 -9 14 1 42 7 21 10 53 7 71 -3 18 0 38 6 44 8 8 6 11 -9 11 -19 0
-20 -4 -14 -44z"/>
<path d="M5558 4643 c6 -2 18 -2 25 0 6 3 1 5 -13 5 -14 0 -19 -2 -12 -5z"/>
<path d="M4861 4624 c0 -11 3 -14 6 -6 3 7 2 16 -1 19 -3 4 -6 -2 -5 -13z"/>
<path d="M5626 4631 c17 -4 36 -11 42 -15 7 -4 12 -3 12 2 0 11 -35 22 -65 21
-12 -1 -8 -4 11 -8z"/>
<path d="M723 4595 c0 -22 2 -30 4 -17 2 12 2 30 0 40 -3 9 -5 -1 -4 -23z"/>
<path d="M5468 4623 c7 -3 16 -2 19 1 4 3 -2 6 -13 5 -11 0 -14 -3 -6 -6z"/>
<path d="M752 4590 c0 -19 2 -27 5 -17 2 9 2 25 0 35 -3 9 -5 1 -5 -18z"/>
<path d="M5518 4613 c7 -3 16 -2 19 1 4 3 -2 6 -13 5 -11 0 -14 -3 -6 -6z"/>
<path d="M4830 4415 c-5 -191 -6 -200 -25 -200 -12 0 -21 8 -23 20 -7 42 -14
51 -22 30 -6 -14 -9 -16 -10 -5 -2 8 -5 2 -9 -15 -5 -23 -11 -29 -26 -27 -11
2 -23 9 -27 15 -6 9 -8 9 -8 0 0 -8 -14 -13 -34 -13 -38 0 -57 -16 -32 -26 10
-4 16 -19 17 -38 l1 -31 7 29 c7 35 23 37 33 4 l6 -23 1 23 c1 22 2 22 166 22
103 0 165 4 165 10 0 6 3 9 8 9 4 -1 15 -1 26 0 13 1 16 4 8 14 -5 6 -12 50
-15 97 -7 101 -5 90 -17 90 -6 0 -10 -39 -10 -96 0 -93 -1 -95 -22 -92 -22 3
-23 6 -26 146 -1 83 -7 142 -12 142 -6 0 -10 7 -10 16 0 8 -4 12 -10 9 -6 -4
-10 -68 -10 -161 0 -127 -2 -154 -14 -154 -8 0 -17 4 -20 9 -3 5 -15 7 -26 4
-19 -5 -20 0 -20 81 0 85 5 97 28 74 9 -9 12 -4 11 23 -1 38 -16 95 -18 67 -1
-10 -5 -18 -11 -18 -5 0 -11 37 -12 83 -2 45 -6 -8 -8 -118z m112 -117 c-9 -9
-12 -4 -11 23 0 32 1 33 11 11 8 -17 8 -26 0 -34z"/>
<path d="M5554 4519 c0 -50 3 -82 7 -71 4 10 19 28 33 40 14 11 26 25 26 32 0
7 -6 5 -16 -4 -20 -20 -34 -12 -34 19 0 17 8 26 31 34 17 6 35 8 40 5 5 -3 9
0 9 6 0 13 -42 30 -73 30 -21 0 -22 -4 -23 -91z"/>
<path d="M4593 4560 c0 -25 2 -35 4 -22 2 12 2 32 0 45 -2 12 -4 2 -4 -23z"/>
<path d="M4863 4545 c0 -27 2 -38 4 -22 2 15 2 37 0 50 -2 12 -4 0 -4 -28z"/>
<path d="M1596 4525 c-3 -22 -4 -78 -2 -125 1 -47 3 -110 4 -140 l2 -55 80 5
c44 3 84 5 88 5 4 0 8 33 10 73 l3 72 -91 0 c-49 0 -90 4 -90 9 0 11 60 21
128 21 l52 0 -4 78 c-3 42 -5 80 -5 84 -1 3 -39 8 -86 10 l-85 3 -4 -40z"/>
<path d="M2620 4480 l0 -90 79 0 c54 0 80 4 83 13 2 6 2 47 0 90 l-4 77 -79 0
-79 0 0 -90z"/>
<path d="M1224 4548 c-3 -4 -4 -42 -3 -83 l2 -75 85 0 85 0 -7 38 c-3 20 -6
58 -6 83 l0 46 -76 -1 c-42 -1 -78 -4 -80 -8z"/>
<path d="M1440 4553 c-23 -4 -25 -7 -23 -56 1 -29 2 -64 2 -79 1 -28 2 -28 65
-28 l63 0 0 85 0 85 -41 -1 c-23 -1 -52 -4 -66 -6z"/>
<path d="M1794 4523 c3 -21 6 -59 6 -85 l0 -48 85 0 85 0 0 85 0 85 -91 0 -92
0 7 -37z"/>
<path d="M3030 4475 l0 -86 48 1 c65 2 72 1 72 -10 0 -5 -25 -10 -56 -12 l-55
-3 -5 -78 -4 -78 65 3 65 3 0 170 0 171 -65 2 -65 3 0 -86z"/>
<path d="M4103 4515 c0 -27 2 -38 4 -22 2 15 2 37 0 50 -2 12 -4 0 -4 -28z"/>
<path d="M864 4468 c4 -45 9 -84 11 -86 2 -2 33 -1 69 3 l66 7 0 77 0 77 -76
2 -77 2 7 -82z"/>
<path d="M1048 4538 c-2 -7 -5 -43 -7 -80 l-3 -68 66 0 66 0 0 80 0 80 -59 0
c-38 0 -60 -4 -63 -12z"/>
<path d="M3404 4468 l1 -83 75 0 75 0 3 81 3 81 -79 2 -79 2 1 -83z"/>
<path d="M3640 4465 l0 -85 64 0 65 0 6 43 c4 23 5 60 3 82 l-3 40 -67 3 -68
3 0 -86z"/>
<path d="M3806 4513 c-3 -21 -6 -59 -6 -85 l0 -48 69 0 68 0 7 46 c3 26 6 64
6 85 l0 39 -69 0 -68 0 -7 -37z"/>
<path d="M723 4490 c0 -25 2 -35 4 -22 2 12 2 32 0 45 -2 12 -4 2 -4 -23z"/>
<path d="M5636 4506 c-4 -16 -16 -28 -31 -32 -19 -5 -25 -13 -24 -33 0 -25 1
-25 9 -4 5 12 18 24 28 27 18 6 39 52 29 63 -3 2 -7 -7 -11 -21z"/>
<path d="M823 4465 c0 -27 2 -38 4 -22 2 15 2 37 0 50 -2 12 -4 0 -4 -28z"/>
<path d="M4131 4426 c1 -36 5 -70 9 -77 14 -21 30 26 30 85 0 50 -2 56 -20 56
-19 0 -21 -6 -19 -64z"/>
<path d="M4731 4397 c0 -45 5 -91 10 -102 6 -13 7 8 3 61 -4 54 -2 84 5 88 7
5 11 -2 12 -16 l0 -23 10 23 c11 28 6 38 -21 45 -19 5 -20 1 -19 -76z"/>
<path d="M716 4431 c-4 -5 -2 -20 3 -33 9 -21 10 -21 10 10 1 32 -3 39 -13 23z"/>
<path d="M4657 4433 c-4 -3 -6 -31 -5 -62 l2 -56 3 48 c4 43 6 47 20 35 15
-11 16 -11 10 5 -4 10 -7 23 -7 28 0 11 -14 12 -23 2z"/>
<path d="M4592 4410 c0 -14 2 -19 5 -12 2 6 2 18 0 25 -3 6 -5 1 -5 -13z"/>
<path d="M5333 4365 c0 -22 2 -30 4 -17 2 12 2 30 0 40 -3 9 -5 -1 -4 -23z"/>
<path d="M823 4330 c0 -25 2 -35 4 -22 2 12 2 32 0 45 -2 12 -4 2 -4 -23z"/>
<path d="M2214 4324 c3 -26 6 -64 6 -85 l0 -39 78 0 77 0 -5 82 -5 83 -79 3
-79 3 7 -47z"/>
<path d="M5099 4348 c-2 -50 3 -104 12 -118 5 -10 9 11 9 57 0 39 -4 75 -10
78 -5 3 -10 -4 -11 -17z"/>
<path d="M870 4272 l0 -87 70 3 c64 3 70 6 71 25 1 12 3 44 5 72 6 70 3 74
-47 65 -23 -4 -55 -4 -70 0 l-29 9 0 -87z"/>
<path d="M1040 4275 l0 -85 68 0 67 0 -1 48 c-1 26 -2 64 -3 85 l-1 37 -65 0
-65 0 0 -85z"/>
<path d="M1220 4281 l0 -79 78 5 c42 3 78 7 79 7 1 1 6 35 9 74 l7 72 -87 0
-86 0 0 -79z"/>
<path d="M1420 4338 c0 -13 -3 -47 -6 -75 l-7 -53 72 0 71 0 -1 75 -1 75 -64
0 c-60 0 -64 -2 -64 -22z"/>
<path d="M1810 4285 l0 -75 80 3 80 2 0 73 0 72 -80 0 -80 0 0 -75z"/>
<path d="M2620 4285 l0 -75 79 1 79 1 4 74 3 74 -82 0 -83 0 0 -75z"/>
<path d="M3412 4328 c-1 -18 -4 -57 -6 -86 l-5 -54 72 4 72 4 1 29 c0 17 4 54
9 83 l8 52 -75 0 -75 0 -1 -32z"/>
<path d="M3636 4338 c-3 -13 -6 -54 -6 -92 l0 -68 38 6 c20 3 52 6 70 6 l32
-1 0 86 0 85 -64 0 c-58 0 -64 -2 -70 -22z"/>
<path d="M3798 4283 c-2 -43 -2 -84 0 -90 3 -9 27 -13 73 -13 l69 0 0 90 0 90
-69 0 -69 0 -4 -77z m119 -79 c-3 -3 -12 -4 -19 -1 -8 3 -5 6 6 6 11 1 17 -2
13 -5z"/>
<path d="M721 4334 c0 -11 3 -14 6 -6 3 7 2 16 -1 19 -3 4 -6 -2 -5 -13z"/>
<path d="M4591 4334 c0 -11 3 -14 6 -6 3 7 2 16 -1 19 -3 4 -6 -2 -5 -13z"/>
<path d="M4134 4273 c7 -52 12 -61 27 -46 15 15 0 93 -19 93 -12 0 -13 -9 -8
-47z"/>
<path d="M4653 4275 c0 -22 2 -30 4 -17 2 12 2 30 0 40 -3 9 -5 -1 -4 -23z"/>
<path d="M824 4165 c0 -66 1 -92 3 -57 2 34 2 88 0 120 -2 31 -3 3 -3 -63z"/>
<path d="M4675 4270 c3 -5 8 -10 11 -10 2 0 4 5 4 10 0 6 -5 10 -11 10 -5 0
-7 -4 -4 -10z"/>
<path d="M4181 4218 c-1 -12 -9 -18 -26 -18 -14 0 -25 -4 -25 -10 0 -5 11 -10
24 -10 21 0 25 -6 28 -32 l3 -33 5 30 c3 17 3 44 -1 60 -4 17 -7 22 -8 13z"/>
<path d="M4551 4161 c-1 -36 2 -52 9 -45 6 6 6 26 1 54 l-9 45 -1 -54z"/>
<path d="M5078 4203 c7 -3 16 -2 19 1 4 3 -2 6 -13 5 -11 0 -14 -3 -6 -6z"/>
<path d="M724 4095 c0 -55 1 -76 3 -47 2 29 2 74 0 100 -2 26 -3 2 -3 -53z"/>
<path d="M5155 4150 c-23 -6 -25 -8 -8 -9 12 0 28 -4 37 -7 11 -4 16 -1 16 10
0 17 0 17 -45 6z"/>
<path d="M5241 4144 c0 -11 3 -14 6 -6 3 7 2 16 -1 19 -3 4 -6 -2 -5 -13z"/>
<path d="M4745 4140 c3 -5 8 -10 11 -10 2 0 4 5 4 10 0 6 -5 10 -11 10 -5 0
-7 -4 -4 -10z"/>
<path d="M4954 4060 c0 -52 1 -74 3 -47 2 26 2 68 0 95 -2 26 -3 4 -3 -48z"/>
<path d="M5038 4128 c5 -18 7 -19 10 -6 2 10 15 18 35 21 28 3 26 4 -10 5 -38
2 -41 0 -35 -20z"/>
<path d="M4808 4133 c7 -3 16 -2 19 1 4 3 -2 6 -13 5 -11 0 -14 -3 -6 -6z"/>
<path d="M5450 4129 c0 -5 5 -7 10 -4 6 3 10 8 10 11 0 2 -4 4 -10 4 -5 0 -10
-5 -10 -11z"/>
<path d="M4753 4040 c0 -41 2 -58 4 -37 2 20 2 54 0 75 -2 20 -4 3 -4 -38z"/>
<path d="M4793 4070 c0 -25 2 -35 4 -22 2 12 2 32 0 45 -2 12 -4 2 -4 -23z"/>
<path d="M5043 4035 c0 -33 2 -45 4 -27 2 18 2 45 0 60 -2 15 -4 0 -4 -33z"/>
<path d="M5185 4023 c-7 -61 -9 -64 -15 -35 -12 51 -24 53 -16 2 4 -25 11 -46
16 -48 6 -2 10 -19 10 -37 0 -26 -4 -33 -17 -30 -10 2 -21 4 -25 4 -4 1 -10
10 -13 21 -3 11 -11 20 -16 20 -5 0 -3 -13 6 -30 13 -25 22 -30 50 -30 l35 0
0 115 c0 63 -2 115 -4 115 -2 0 -7 -30 -11 -67z"/>
<path d="M5593 4055 c0 -22 2 -30 4 -17 2 12 2 30 0 40 -3 9 -5 -1 -4 -23z"/>
<path d="M4992 4060 c0 -14 2 -19 5 -12 2 6 2 18 0 25 -3 6 -5 1 -5 -13z"/>
<path d="M4661 3995 c0 -44 3 -86 8 -93 4 -7 6 24 4 70 -6 111 -11 121 -12 23z"/>
<path d="M5371 4029 c0 -24 4 -53 9 -64 6 -13 7 2 3 40 -7 73 -13 85 -12 24z"/>
<path d="M5423 4030 c0 -25 2 -35 4 -22 2 12 2 32 0 45 -2 12 -4 2 -4 -23z"/>
<path d="M5112 4030 c0 -19 2 -27 5 -17 2 9 2 25 0 35 -3 9 -5 1 -5 -18z"/>
<path d="M5132 4040 c0 -14 2 -19 5 -12 2 6 2 18 0 25 -3 6 -5 1 -5 -13z"/>
<path d="M5313 4010 c0 -30 2 -43 4 -27 2 15 2 39 0 55 -2 15 -4 2 -4 -28z"/>
<path d="M5337 4019 c-3 -23 -2 -51 3 -63 5 -14 8 -2 8 42 1 34 0 62 -2 62 -2
0 -6 -19 -9 -41z"/>
<path d="M4313 4043 c15 -2 39 -2 55 0 15 2 2 4 -28 4 -30 0 -43 -2 -27 -4z"/>
<path d="M5552 4002 c-2 -50 -3 -53 -24 -47 -16 5 -20 4 -13 -3 6 -6 39 -14
75 -18 36 -3 62 -3 58 0 -7 8 -32 14 -65 15 -19 1 -22 7 -26 54 l-3 52 -2 -53z"/>
<path d="M4112 4005 c0 -16 2 -22 5 -12 2 9 2 23 0 30 -3 6 -5 -1 -5 -18z"/>
<path d="M5622 4005 c0 -16 2 -22 5 -12 2 9 2 23 0 30 -3 6 -5 -1 -5 -18z"/>
<path d="M5522 4000 c0 -14 2 -19 5 -12 2 6 2 18 0 25 -3 6 -5 1 -5 -13z"/>
<path d="M5652 3995 c0 -16 2 -22 5 -12 2 9 2 23 0 30 -3 6 -5 -1 -5 -18z"/>
<path d="M4990 3999 c0 -5 5 -7 10 -4 6 3 10 8 10 11 0 2 -4 4 -10 4 -5 0 -10
-5 -10 -11z"/>
<path d="M4208 3993 c6 -2 18 -2 25 0 6 3 1 5 -13 5 -14 0 -19 -2 -12 -5z"/>
<path d="M4268 3993 c12 -2 32 -2 45 0 12 2 2 4 -23 4 -25 0 -35 -2 -22 -4z"/>
<path d="M4453 3993 c9 -2 23 -2 30 0 6 3 -1 5 -18 5 -16 0 -22 -2 -12 -5z"/>
<path d="M4831 3980 c-1 -23 -5 -26 -48 -28 -28 -1 -50 3 -55 11 -5 8 -8 7 -8
-5 0 -10 6 -18 13 -18 6 0 19 -15 28 -32 8 -17 21 -34 29 -36 8 -3 5 7 -8 26
-12 16 -22 32 -22 35 0 2 18 4 40 4 22 0 43 2 45 5 2 2 0 17 -4 34 -9 28 -9
28 -10 4z"/>
<path d="M4911 3977 c-1 -22 10 -39 47 -72 53 -50 81 -61 37 -15 -22 23 -26
32 -16 43 9 12 8 16 -3 20 -9 4 -18 2 -21 -3 -10 -16 -34 1 -38 28 l-4 27 -2
-28z"/>
<path d="M5238 3951 c-7 -51 -1 -83 9 -53 4 10 11 8 29 -9 13 -12 24 -18 24
-11 0 6 -11 19 -24 30 -17 13 -26 31 -28 58 -3 37 -3 37 -10 -15z"/>
<path d="M5271 3984 c0 -11 3 -14 6 -6 3 7 2 16 -1 19 -3 4 -6 -2 -5 -13z"/>
<path d="M4871 3973 c-1 -12 4 -25 9 -28 12 -7 12 2 0 30 -8 19 -9 19 -9 -2z"/>
<path d="M5001 3964 c0 -11 3 -14 6 -6 3 7 2 16 -1 19 -3 4 -6 -2 -5 -13z"/>
<path d="M5709 3948 c0 -7 0 -41 1 -74 1 -46 -3 -66 -16 -78 -19 -19 -15 -29
8 -21 12 5 16 26 17 96 1 49 -1 89 -4 89 -3 0 -5 -6 -6 -12z"/>
<path d="M4196 3935 c4 -8 8 -15 10 -15 2 0 4 7 4 15 0 8 -4 15 -10 15 -5 0
-7 -7 -4 -15z"/>
<path d="M4233 3943 c9 -2 17 -12 17 -22 0 -9 7 -26 16 -37 15 -19 16 -19 8 1
-4 11 -8 30 -8 43 -1 17 -7 22 -26 21 -17 -1 -19 -3 -7 -6z"/>
<path d="M4312 3909 c10 -22 17 -47 14 -54 -3 -9 0 -12 8 -9 10 4 9 15 -3 54
-9 27 -21 50 -28 50 -7 0 -4 -15 9 -41z"/>
<path d="M4350 3945 c0 -3 9 -24 20 -45 19 -37 19 -40 3 -41 -16 0 -15 -2 2
-8 32 -13 36 -3 13 34 -11 20 -17 42 -14 50 3 9 0 15 -9 15 -8 0 -15 -2 -15
-5z"/>
<path d="M4535 3928 c4 -13 15 -32 26 -42 17 -18 16 -16 -2 22 -23 46 -34 55
-24 20z"/>
<path d="M4425 3900 c14 -23 23 -44 21 -49 -3 -4 7 -7 22 -5 15 1 47 3 72 5
30 1 36 3 18 6 -16 3 -36 18 -53 44 -35 49 -44 51 -15 2 16 -27 18 -38 9 -44
-20 -12 -37 1 -56 42 -10 21 -24 39 -31 39 -8 0 -3 -15 13 -40z"/>
<path d="M4117 3915 c-10 -24 -9 -37 2 -30 5 3 12 -4 16 -15 3 -11 14 -20 23
-21 9 0 29 -2 44 -4 35 -5 40 4 22 35 -14 23 -14 23 -9 3 5 -18 2 -23 -13 -23
-13 0 -23 11 -30 33 l-12 32 5 -33 c6 -44 -16 -38 -31 8 -8 25 -12 29 -17 15z"/>
<path d="M4690 3918 c1 -20 38 -64 47 -55 4 5 0 13 -10 18 -9 6 -17 16 -17 24
0 8 -4 17 -10 20 -5 3 -10 0 -10 -7z"/>
<path d="M4900 3890 c17 -22 36 -37 41 -34 5 3 -2 15 -16 26 -15 11 -24 27
-21 34 4 9 -2 14 -15 14 -19 0 -18 -3 11 -40z"/>
<path d="M5047 3895 c15 -19 35 -35 42 -35 9 0 2 13 -19 35 -44 45 -59 45 -23
0z"/>
<path d="M5680 3914 c0 -13 -9 -15 -61 -9 l-62 7 20 -21 c15 -16 30 -21 56
-19 20 1 33 6 31 10 -3 4 -1 8 5 8 5 0 12 -6 14 -12 3 -7 6 2 6 20 1 17 -1 32
-4 32 -3 0 -5 -7 -5 -16z"/>
<path d="M4823 3895 c7 -13 18 -27 25 -30 8 -3 11 0 8 7 -3 7 -9 21 -12 31 -4
9 -12 17 -19 17 -10 0 -11 -5 -2 -25z"/>
<path d="M5327 3895 c10 -13 25 -24 33 -24 12 0 12 2 -2 13 -10 7 -18 18 -18
25 0 6 -7 11 -15 11 -14 0 -13 -3 2 -25z"/>
<path d="M5401 3903 c-1 -26 16 -40 32 -24 8 8 7 11 -5 11 -9 0 -19 8 -21 18
-4 13 -5 12 -6 -5z"/>
<path d="M5460 3901 c0 -12 26 -32 33 -25 3 4 0 13 -8 20 -16 16 -25 18 -25 5z"/>
<path d="M5520 3896 c0 -15 18 -31 26 -23 7 7 -7 37 -17 37 -5 0 -9 -6 -9 -14z"/>
<path d="M4119 3828 c4 -28 6 -29 9 -9 2 13 0 27 -5 32 -6 6 -7 -3 -4 -23z"/>
<path d="M4280 3850 c0 -5 7 -7 15 -4 8 4 15 8 15 10 0 2 -7 4 -15 4 -8 0 -15
-4 -15 -10z"/>
<path d="M4677 3770 c5 -34 3 -40 -13 -40 -16 0 -17 -2 -4 -10 24 -15 29 -12
32 23 3 29 7 33 43 38 l40 6 -37 2 c-20 0 -40 6 -43 11 -14 23 -23 8 -18 -30z"/>
<path d="M4288 3783 c7 -3 16 -2 19 1 4 3 -2 6 -13 5 -11 0 -14 -3 -6 -6z"/>
<path d="M4393 3783 c9 -2 23 -2 30 0 6 3 -1 5 -18 5 -16 0 -22 -2 -12 -5z"/>
<path d="M4120 3771 c0 -6 4 -13 10 -16 6 -3 7 1 4 9 -7 18 -14 21 -14 7z"/>
<path d="M4913 3773 c9 -2 25 -2 35 0 9 3 1 5 -18 5 -19 0 -27 -2 -17 -5z"/>
<path d="M5013 3773 c9 -2 25 -2 35 0 9 3 1 5 -18 5 -19 0 -27 -2 -17 -5z"/>
<path d="M5163 3773 c9 -2 23 -2 30 0 6 3 -1 5 -18 5 -16 0 -22 -2 -12 -5z"/>
<path d="M4260 3730 l-105 -6 110 -2 c61 -1 117 3 125 8 12 8 11 9 -5 8 -11
-1 -67 -5 -125 -8z"/>
<path d="M4448 3733 c17 -2 47 -2 65 0 17 2 3 4 -33 4 -36 0 -50 -2 -32 -4z"/>
<path d="M548 3246 c-29 -15 -33 -33 -9 -41 17 -5 21 -15 22 -53 1 -60 -2
-230 -7 -402 -5 -148 -12 -470 -13 -592 -1 -62 -4 -78 -16 -78 -8 0 -15 -7
-15 -15 0 -12 16 -15 85 -15 87 0 111 13 53 28 l-33 8 -8 177 c-5 97 -5 218 0
269 l8 93 51 3 c39 2 56 -2 78 -19 31 -25 99 -164 121 -250 27 -102 87 -274
102 -289 13 -13 17 -12 34 9 22 27 25 51 5 51 -14 0 -16 8 -61 200 -31 131
-88 266 -116 275 -11 4 -19 10 -19 14 0 3 -13 15 -30 24 -16 10 -30 21 -30 25
0 4 19 18 41 32 64 39 142 161 155 242 8 47 -10 166 -32 213 -11 22 -38 52
-62 69 -41 29 -46 30 -163 31 -67 1 -129 -3 -141 -9z m272 -67 c51 -53 64
-100 56 -209 -8 -119 -28 -181 -71 -219 -50 -43 -108 -71 -150 -71 l-35 0 -1
158 c0 86 -3 195 -5 242 -7 135 -7 135 114 139 49 1 55 -2 92 -40z"/>
<path d="M1705 3233 c-100 -53 -131 -181 -81 -336 12 -41 57 -136 99 -211 42
-75 88 -173 102 -217 31 -100 36 -209 11 -257 -23 -45 -88 -91 -121 -84 -33 6
-73 54 -81 97 -3 19 -11 35 -16 35 -6 0 -8 14 -5 35 9 53 -9 42 -44 -26 -34
-68 -30 -90 7 -44 21 26 24 27 24 10 1 -28 37 -105 62 -132 46 -49 157 -8 202
74 93 165 67 404 -63 578 -60 81 -111 162 -133 212 -28 64 -22 172 12 208 52
55 123 13 122 -72 -1 -26 -4 -61 -8 -78 l-6 -30 24 26 c62 67 89 119 54 106
-10 -4 -17 7 -25 36 -13 49 -18 58 -48 75 -30 16 -51 15 -88 -5z"/>
<path d="M3239 3240 c-33 -8 -35 -28 -2 -32 l28 -3 0 -80 c-2 -196 -9 -363
-18 -395 -15 -54 10 -480 31 -538 37 -98 144 -96 210 5 12 19 22 43 22 54 0
10 5 19 10 19 6 0 10 -28 10 -65 0 -48 -4 -66 -16 -73 -25 -14 0 -20 80 -18
46 1 71 5 73 14 3 8 -7 12 -31 12 -35 0 -36 1 -37 43 -1 23 -1 51 -1 62 0 11
4 124 7 250 4 127 8 246 9 265 4 57 18 213 22 240 1 14 3 59 3 101 1 66 4 79
25 102 14 15 20 29 15 32 -14 9 -149 -6 -149 -16 0 -5 9 -9 20 -9 18 0 20 -7
20 -79 0 -43 -6 -141 -14 -217 -8 -77 -17 -224 -21 -329 -6 -164 -10 -201 -32
-272 -41 -134 -119 -194 -157 -120 -20 39 -37 324 -23 402 5 28 7 76 5 108 -2
31 -1 57 4 57 4 0 8 7 8 15 0 8 -6 15 -12 15 -10 0 -10 2 -1 8 8 5 12 65 12
206 0 125 4 203 11 210 5 5 10 16 10 24 0 13 -68 14 -121 2z"/>
<path d="M2285 3218 c-66 -5 -142 -9 -170 -10 -50 -1 -50 -1 -77 -54 -32 -61
-34 -74 -13 -74 8 0 15 6 15 13 0 28 55 66 100 71 121 13 114 15 120 -24 4
-25 4 -754 0 -982 0 -11 -10 -18 -32 -20 -17 -2 -33 -8 -35 -15 -5 -15 164
-30 179 -15 11 11 1 35 -12 27 -4 -3 -14 3 -21 12 -11 12 -13 64 -12 242 2
124 2 351 2 503 0 207 3 278 13 284 6 4 46 9 87 12 76 4 76 4 119 -33 29 -25
47 -34 53 -28 7 7 2 19 -15 38 -14 15 -28 36 -31 46 -7 22 -54 23 -270 7z"/>
<path d="M1195 3214 c-16 -3 -42 -10 -58 -16 -22 -8 -25 -13 -16 -24 6 -8 17
-14 25 -14 11 0 13 -75 13 -412 0 -249 -5 -445 -12 -493 -6 -44 -11 -97 -12
-117 0 -32 -3 -38 -22 -38 -26 0 -38 -15 -21 -26 6 -4 30 -9 52 -10 23 -1 77
-5 121 -9 44 -3 100 -2 125 2 l45 8 3 48 c2 28 -1 47 -7 47 -6 0 -11 -6 -11
-12 0 -7 -10 -26 -23 -41 -22 -29 -23 -29 -105 -22 l-82 8 6 46 c3 25 9 141
12 256 l7 210 56 3 c52 3 57 1 63 -20 11 -41 26 1 26 76 0 72 -7 78 -25 23 -9
-30 -14 -32 -63 -37 -29 -3 -55 -4 -58 -1 -2 2 -4 121 -4 263 l0 258 74 0 c72
0 75 -1 104 -34 16 -19 32 -40 34 -48 3 -7 9 -10 13 -6 8 8 -18 84 -38 111 -9
12 -34 17 -102 21 -49 2 -103 2 -120 0z"/>
<path d="M2861 3158 c-38 -118 -99 -343 -146 -543 -26 -110 -53 -222 -60 -250
-8 -27 -21 -86 -30 -130 -8 -44 -18 -90 -20 -101 -3 -14 -15 -24 -36 -28 -56
-11 -19 -26 67 -26 68 0 84 3 84 15 0 8 -9 15 -21 15 -35 0 -60 19 -50 38 4 9
11 35 15 57 4 22 18 85 31 140 13 55 28 123 34 150 5 28 15 63 20 78 10 26 12
27 78 22 38 -2 75 -5 83 -5 17 0 24 -38 56 -285 7 -60 16 -121 18 -136 4 -21
-1 -27 -27 -37 -19 -7 -27 -15 -22 -21 14 -13 166 -29 190 -21 19 7 19 8 -5
18 -14 6 -32 12 -40 15 -11 3 -19 32 -28 98 -8 52 -20 141 -28 199 -8 58 -21
173 -29 257 -8 83 -17 162 -19 175 -3 13 -8 56 -11 97 -3 40 -7 76 -9 80 -2 3
-7 31 -11 61 -9 67 -33 130 -50 130 -7 0 -23 -28 -34 -62z m37 -245 c12 -98
22 -203 22 -234 0 -52 -2 -56 -22 -54 -13 1 -47 3 -76 4 l-53 1 6 38 c4 20 13
61 21 91 9 29 17 77 19 105 3 57 9 85 32 169 9 31 19 57 23 57 4 0 16 -80 28
-177z"/>
<path d="M5230 3209 c0 -5 11 -11 25 -15 16 -4 25 -14 26 -28 2 -38 -1 -225
-7 -495 -6 -234 -8 -262 -21 -245 -21 28 -79 153 -97 210 -25 80 -52 154 -88
244 -19 47 -38 98 -42 113 -3 15 -19 56 -35 90 -16 34 -31 72 -35 85 -4 12
-11 22 -15 22 -4 0 -12 -241 -18 -536 -8 -433 -12 -537 -23 -544 -8 -5 -18 -6
-22 -4 -4 3 -8 1 -8 -5 0 -12 103 -26 126 -17 25 10 10 31 -24 34 l-32 3 6
337 c3 185 9 364 13 397 l8 60 7 -40 c4 -22 11 -49 16 -60 5 -11 12 -31 15
-45 9 -35 47 -114 58 -121 5 -3 7 -12 6 -20 -3 -18 42 -119 53 -119 4 0 8 -9
8 -20 0 -11 17 -57 39 -102 21 -46 48 -112 61 -148 22 -62 58 -126 66 -117 3
3 13 724 14 1045 0 6 11 12 25 12 29 0 36 29 8 31 -74 6 -113 5 -113 -2z
m-232 -234 c-3 -3 -9 2 -12 12 -6 14 -5 15 5 6 7 -7 10 -15 7 -18z"/>
<path d="M5684 3206 c-40 -18 -100 -80 -127 -131 -16 -32 -22 -69 -29 -195 -9
-162 -12 -451 -4 -485 2 -11 7 -45 11 -75 10 -73 50 -172 81 -199 50 -44 124
-15 173 69 12 19 21 33 22 30 0 -3 3 -31 6 -62 3 -43 1 -58 -8 -58 -9 0 -10
-3 -3 -10 11 -11 114 -21 114 -11 0 3 -9 12 -21 19 -21 13 -21 18 -17 297 4
329 18 295 -124 295 -72 0 -88 -3 -88 -15 0 -12 13 -15 58 -15 81 0 93 -11 84
-80 -4 -30 -7 -111 -5 -180 2 -120 1 -127 -24 -165 -40 -62 -75 -95 -99 -95
-57 0 -98 131 -96 300 1 41 -2 103 -6 138 -5 36 -5 65 1 69 4 3 6 48 2 102 -7
101 15 334 35 370 19 36 41 51 78 51 54 0 96 -34 117 -94 33 -92 51 -98 48
-14 -3 127 -79 187 -179 144z m-114 -506 c0 -5 -2 -10 -4 -10 -3 0 -8 5 -11
10 -3 6 -1 10 4 10 6 0 11 -4 11 -10z"/>
<path d="M3831 3199 c-53 -10 -63 -18 -32 -26 26 -7 25 16 6 -238 -2 -27 -6
-111 -10 -185 -3 -74 -10 -174 -16 -221 -6 -47 -9 -90 -8 -95 1 -5 1 -78 0
-162 l-1 -152 -32 -8 c-26 -5 -15 -8 52 -13 55 -4 90 -2 99 5 11 9 8 12 -15
16 l-29 5 1 100 c1 55 2 157 3 226 l1 127 28 5 c47 9 82 -4 106 -39 12 -19 26
-31 31 -26 5 4 5 1 1 -5 -4 -7 -2 -21 3 -32 6 -10 24 -88 41 -172 16 -85 33
-164 36 -176 5 -20 2 -23 -20 -23 -48 0 -27 -18 29 -25 58 -8 105 -1 105 15 0
5 -11 12 -23 16 -19 4 -26 16 -35 55 -7 28 -12 66 -12 84 0 19 -6 54 -14 77
-8 24 -14 63 -13 88 0 70 -44 143 -105 174 -32 16 -32 33 0 44 84 29 181 222
174 344 -3 31 -54 133 -85 166 -54 58 -144 75 -266 51z m169 -37 c0 -5 11 -22
25 -38 50 -58 67 -107 67 -202 1 -88 -24 -192 -56 -234 -20 -27 -97 -58 -145
-58 l-44 0 6 45 c7 47 13 149 22 354 3 68 8 128 11 132 7 12 114 12 114 1z"/>
<path d="M4513 3195 c-13 -9 -24 -31 -28 -57 -3 -24 -13 -56 -20 -73 -7 -16
-21 -73 -30 -125 -9 -52 -18 -97 -20 -100 -4 -6 -25 -116 -50 -260 -7 -41 -20
-102 -28 -135 -8 -33 -25 -121 -37 -195 -12 -74 -24 -138 -27 -142 -2 -5 -11
-8 -19 -8 -8 0 -12 -4 -9 -10 9 -14 115 -13 115 1 0 6 -10 13 -21 16 -24 7
-24 -7 6 185 8 54 24 133 35 177 11 44 20 88 20 99 0 25 20 29 119 22 83 -6
77 1 86 -100 3 -30 10 -82 15 -115 5 -33 12 -96 15 -140 3 -44 8 -91 11 -104
5 -22 2 -23 -31 -19 -33 4 -50 -8 -22 -16 32 -10 207 -16 207 -7 0 6 -16 13
-35 17 -43 8 -44 10 -49 76 -8 119 -28 330 -42 450 -8 70 -13 131 -12 135 3
13 -13 87 -22 98 -4 6 -10 42 -14 80 -6 67 -9 90 -21 170 -5 32 -47 95 -64 95
-3 0 -16 -7 -28 -15z m25 -152 c6 -43 18 -134 27 -203 9 -69 20 -146 24 -172
4 -26 6 -50 3 -53 -3 -3 -45 -5 -94 -5 -96 0 -95 -1 -78 60 5 19 16 71 25 115
8 44 24 123 35 175 11 52 23 110 27 128 9 52 20 37 31 -45z"/>
<path d="M4880 1752 c-78 -4 -91 -10 -57 -28 31 -17 30 -15 17 -159 -5 -55
-15 -206 -20 -335 -6 -129 -13 -251 -15 -270 -2 -19 -7 -90 -11 -157 -6 -117
-8 -123 -28 -123 -11 0 -27 -4 -35 -9 -26 -17 22 -22 155 -16 71 2 150 5 176
5 l48 0 6 40 c4 22 11 43 15 46 15 9 10 64 -5 64 -10 0 -21 -22 -32 -60 l-17
-61 -101 3 c-63 2 -100 7 -99 13 1 6 4 111 7 234 4 123 8 227 11 231 8 13 15
125 23 345 7 197 7 200 30 203 12 2 22 7 22 12 0 17 -34 25 -90 22z"/>
<path d="M3998 1732 c-39 -5 -35 -20 8 -28 l37 -7 -7 -106 c-3 -58 -9 -173
-13 -254 -3 -81 -9 -149 -12 -152 -6 -3 -311 -8 -369 -6 l-22 1 7 188 c4 103
7 214 5 246 -3 65 5 76 51 76 27 0 38 17 15 25 -21 7 -149 13 -169 8 -25 -7
-24 -24 1 -30 11 -3 17 -9 14 -14 -8 -14 -19 -507 -18 -791 l2 -248 -31 0
c-34 0 -32 -9 4 -15 49 -8 180 -14 194 -9 8 4 15 12 15 20 0 10 -13 14 -45 14
-40 0 -45 3 -46 23 -2 64 2 461 5 464 2 2 91 5 197 6 l194 2 0 -245 c-1 -243
-1 -245 -23 -256 -43 -21 -35 -24 69 -24 107 1 109 2 53 36 -17 10 -18 30 -17
275 2 528 3 615 9 697 l7 82 30 0 c19 0 27 4 22 9 -10 10 -120 18 -167 13z"/>
<path d="M559 1696 c-41 -28 -84 -114 -73 -148 4 -14 2 -18 -5 -14 -11 7 -13
-4 -13 -54 0 -11 1 -21 1 -22 1 -2 4 -23 6 -48 2 -24 8 -46 14 -48 6 -2 11
-14 11 -27 0 -13 7 -31 16 -39 8 -9 12 -16 8 -16 -4 0 3 -11 16 -25 12 -13 27
-22 31 -19 5 3 6 -1 4 -8 -3 -8 17 -35 45 -62 27 -26 47 -52 44 -57 -3 -5 0
-9 5 -9 6 0 11 -7 11 -15 0 -8 6 -12 14 -9 11 4 13 0 9 -15 -3 -12 0 -35 7
-52 7 -17 14 -49 14 -72 1 -23 5 -47 9 -54 4 -6 3 -14 -3 -18 -5 -3 -10 -19
-10 -35 0 -37 -30 -107 -64 -148 -34 -39 -75 -42 -122 -10 -57 39 -79 122 -58
221 9 44 -17 33 -60 -24 -21 -28 -35 -53 -32 -56 8 -9 36 17 36 33 0 8 5 14
10 14 6 0 10 -24 10 -53 0 -79 41 -155 100 -185 65 -32 102 -29 150 14 34 31
93 128 96 159 0 6 4 17 7 25 16 41 23 93 23 168 -1 67 -4 85 -18 93 -10 5 -15
18 -13 29 2 11 0 18 -6 15 -5 -4 -9 5 -9 19 0 13 -3 26 -7 28 -5 2 -16 17 -25
33 -10 17 -22 29 -28 27 -7 -1 -9 2 -5 8 3 6 -4 14 -17 19 -13 6 -19 10 -15
10 16 2 -34 60 -54 63 -11 2 -18 8 -17 13 2 6 7 9 12 7 5 -2 -2 12 -16 30 -43
58 -61 119 -56 199 3 65 6 74 33 95 17 13 42 24 57 24 38 0 83 -50 105 -117
10 -31 23 -58 29 -60 13 -4 54 68 53 93 0 17 -2 17 -16 -3 -22 -32 -31 -29
-43 17 -22 82 -127 116 -201 66z"/>
<path d="M5283 1710 c-13 -5 -23 -17 -23 -25 0 -12 8 -15 33 -13 l32 3 -3 -70
c-2 -38 -11 -171 -22 -295 -10 -124 -18 -286 -18 -360 1 -162 -8 -250 -27
-250 -7 0 -16 -7 -19 -16 -4 -12 -2 -15 9 -11 8 4 17 3 19 -2 3 -4 21 -8 41
-9 28 -1 35 2 35 18 0 10 -5 22 -10 25 -7 4 -8 29 -4 67 5 48 4 59 -6 53 -9
-6 -10 -3 -1 13 7 12 10 63 9 119 -2 115 9 317 22 421 6 40 10 103 10 138 0
36 4 63 9 60 4 -3 36 -74 71 -158 34 -84 74 -165 88 -180 l25 -28 19 38 c10
20 28 55 41 77 12 22 34 60 47 85 14 25 35 59 48 77 13 18 20 37 16 44 -4 8
-3 9 4 5 7 -4 17 3 24 18 25 56 31 25 24 -131 -3 -87 -9 -230 -12 -318 -3 -88
-8 -163 -10 -166 -2 -3 -4 -65 -5 -137 -1 -73 -6 -133 -10 -133 -5 -1 -13 -3
-19 -4 -5 -1 -16 -3 -22 -4 -9 -1 -8 -4 2 -10 30 -18 200 -18 200 -1 0 6 -11
10 -24 10 -36 0 -41 15 -38 112 3 81 2 87 -15 82 -17 -5 -17 -5 0 6 11 7 18
22 16 38 -1 15 1 34 4 42 12 33 17 69 9 74 -5 3 -6 28 -2 55 5 38 3 54 -9 66
-14 13 -14 15 2 15 20 0 22 11 5 28 -9 9 -9 15 -2 20 12 9 16 52 4 52 -4 0 -3
14 3 30 8 22 9 35 1 48 -8 12 -8 26 -1 46 7 20 7 34 -1 46 -6 10 -7 22 -1 31
5 8 9 60 9 117 l0 102 25 0 c36 0 31 26 -6 34 -81 16 -178 0 -124 -20 27 -11
16 -49 -41 -135 -30 -46 -74 -119 -97 -161 -23 -43 -44 -78 -47 -78 -5 0 -54
119 -66 160 -3 14 -19 51 -35 84 -16 32 -29 66 -29 75 0 9 -11 33 -25 54 -23
33 -30 37 -68 36 -23 0 -52 -4 -64 -9z"/>
<path d="M933 1688 c0 -13 -3 -41 -8 -62 -10 -48 6 -42 34 12 l19 37 73 -1
c41 -1 82 -2 93 -3 18 -1 18 -8 12 -113 -3 -62 -7 -279 -7 -483 -1 -203 -4
-384 -6 -402 -4 -27 -10 -32 -41 -39 -35 -7 -36 -7 -12 -14 38 -12 178 -11
185 0 4 6 -7 13 -24 16 l-31 7 -1 161 c-2 172 1 414 6 561 2 50 3 139 4 198
l1 108 97 -3 96 -3 22 -40 c21 -37 45 -57 45 -38 0 5 -7 32 -15 60 l-15 50
-152 6 c-83 4 -202 7 -264 7 -110 0 -112 0 -111 -22z"/>
<path d="M2030 1700 c-22 -6 -23 -8 -7 -15 9 -4 23 -5 30 -2 38 15 40 0 38
-339 -1 -181 -4 -351 -6 -379 -2 -27 -7 -112 -11 -187 -7 -131 -8 -138 -28
-138 -12 0 -27 -4 -35 -9 -11 -7 -4 -11 25 -16 21 -3 51 -9 66 -11 31 -6 108
13 108 26 0 10 -21 14 -54 11 -17 -1 -18 4 -13 51 4 29 10 136 13 238 4 102
11 191 17 198 15 19 54 14 79 -11 46 -45 51 -66 56 -217 6 -219 33 -289 108
-281 18 2 42 44 49 87 l6 39 -20 -37 c-12 -20 -25 -39 -30 -43 -17 -10 -29 63
-35 206 -7 170 -21 209 -96 264 l-52 38 57 31 c32 16 60 37 63 46 3 8 19 33
34 54 54 75 76 222 43 286 -16 32 -85 90 -128 108 -31 13 -236 15 -277 2z
m295 -56 c34 -37 48 -96 42 -179 -11 -161 -42 -218 -135 -250 -77 -26 -72 -40
-72 213 0 126 3 232 7 235 3 4 35 7 70 7 56 0 67 -3 88 -26z"/>
<path d="M2826 1688 c-14 -22 -56 -155 -96 -303 -10 -38 -31 -113 -45 -165
-14 -52 -27 -104 -29 -115 -2 -11 -9 -49 -16 -83 -6 -35 -16 -76 -22 -90 -5
-15 -20 -88 -32 -162 -21 -133 -22 -135 -49 -138 -15 -2 -27 -7 -27 -12 0 -11
102 -22 134 -14 36 9 34 34 -4 34 -27 0 -30 3 -30 33 0 91 75 404 99 411 20 6
69 8 148 7 l62 -1 6 -57 c4 -32 11 -78 17 -103 5 -25 15 -94 23 -155 7 -60 14
-117 16 -125 3 -11 -6 -16 -28 -18 -19 -2 -33 -9 -33 -17 0 -10 24 -14 93 -17
50 -2 102 -2 115 0 33 6 27 30 -10 40 -36 9 -35 4 -73 247 -9 61 -21 128 -26
150 -5 22 -27 132 -49 245 -48 246 -75 365 -89 403 -13 33 -35 35 -55 5z m29
-243 c54 -306 53 -299 36 -313 -18 -15 -187 -11 -184 4 1 5 4 25 8 44 3 19 12
55 19 80 8 25 18 63 25 85 44 161 65 225 72 213 3 -7 15 -58 24 -113z"/>
<path d="M1687 1682 c-25 -17 -96 -103 -118 -144 -15 -28 -89 -239 -99 -285
-18 -78 -23 -222 -10 -287 18 -86 50 -195 70 -236 30 -59 114 -110 180 -110
34 0 47 6 71 33 34 36 81 131 99 197 7 25 25 88 42 140 28 87 30 105 30 245 0
82 -3 161 -6 175 -4 14 -11 47 -16 74 -17 84 -54 152 -98 181 -54 35 -108 42
-145 17z m94 -43 c44 -58 61 -112 80 -259 6 -47 13 -98 15 -115 14 -102 7
-165 -42 -371 -33 -142 -60 -206 -94 -224 -30 -16 -68 -12 -90 10 -11 11 -20
17 -20 13 -1 -13 -26 50 -58 144 -26 75 -31 105 -32 194 -1 57 0 106 1 109 0
3 3 19 4 35 2 17 9 59 15 95 6 36 13 79 16 95 15 90 79 241 119 281 32 32 57
30 86 -7z"/>
<path d="M4386 1660 c-86 -76 -143 -220 -171 -431 -29 -219 -4 -382 75 -486
43 -56 91 -76 163 -67 78 11 108 45 170 199 59 145 82 434 46 593 -38 172
-189 274 -283 192z m122 -17 c39 -56 64 -117 84 -206 17 -80 19 -113 14 -252
-6 -158 -16 -228 -54 -355 -27 -94 -30 -99 -70 -110 -114 -31 -164 7 -190 145
-21 111 -21 163 3 398 11 112 45 241 78 300 27 50 80 107 97 107 10 0 27 -12
38 -27z"/>
</g>
</svg>
